<svg width="21" height="24" viewBox="0 0 21 24" fill="none" xmlns="http://www.w3.org/2000/svg">
<path d="M10.4699 23.3545C10.3163 23.3539 10.1644 23.3216 10.0238 23.2597C9.88316 23.1977 9.75683 23.1074 9.65269 22.9944L7.76673 20.937H4.11768C3.02607 20.9355 1.9796 20.5012 1.20771 19.7293C0.435823 18.9574 0.00151193 17.911 0 16.8193L0 4.11768C0.00151193 3.02607 0.435823 1.9796 1.20771 1.20771C1.9796 0.435823 3.02607 0.00151193 4.11768 0L16.8193 0C17.911 0.00151193 18.9574 0.435823 19.7293 1.20771C20.5012 1.9796 20.9355 3.02607 20.937 4.11768V16.8193C20.9355 17.911 20.5012 18.9574 19.7293 19.7293C18.9574 20.5012 17.911 20.9355 16.8193 20.937H13.1846L11.2872 22.9973C11.1825 23.1094 11.056 23.1988 10.9154 23.2603C10.7749 23.3217 10.6233 23.3538 10.4699 23.3545ZM4.11768 1.14301C3.32898 1.14376 2.5728 1.45741 2.0151 2.0151C1.45741 2.5728 1.14376 3.32898 1.14301 4.11768V16.8193C1.14376 17.608 1.45741 18.3642 2.0151 18.9219C2.5728 19.4796 3.32898 19.7933 4.11768 19.794H8.2668L10.4699 22.1972L12.6845 19.794H16.8193C17.608 19.7933 18.3642 19.4796 18.9219 18.9219C19.4796 18.3642 19.7933 17.608 19.794 16.8193V4.11768C19.7933 3.32898 19.4796 2.5728 18.9219 2.0151C18.3642 1.45741 17.608 1.14376 16.8193 1.14301H4.11768Z" fill="#343A3D"/>
<path d="M14.0533 11.0385H6.88376C6.73219 11.0385 6.58682 10.9783 6.47965 10.8711C6.37247 10.7639 6.31226 10.6186 6.31226 10.467C6.31226 10.3154 6.37247 10.1701 6.47965 10.0629C6.58682 9.95572 6.73219 9.89551 6.88376 9.89551H14.0533C14.2048 9.89551 14.3502 9.95572 14.4574 10.0629C14.5646 10.1701 14.6248 10.3154 14.6248 10.467C14.6248 10.6186 14.5646 10.7639 14.4574 10.8711C14.3502 10.9783 14.2048 11.0385 14.0533 11.0385Z" fill="#343A3D"/>
</svg>
