<svg width="18" height="24" viewBox="0 0 18 24" fill="none" xmlns="http://www.w3.org/2000/svg">
<path fill-rule="evenodd" clip-rule="evenodd" d="M10.1667 1.50001C10.1667 0.855678 9.64434 0.333344 9.00001 0.333344C8.35568 0.333344 7.83334 0.855678 7.83334 1.50001V2.37501H7.18302C4.58711 2.37501 2.43858 4.39336 2.27653 6.98421L2.01869 11.1066C1.92039 12.6783 1.39272 14.1929 0.493148 15.4855C-0.319648 16.6534 0.403943 18.2664 1.81669 18.436L5.79168 18.913V20.1667C5.79168 21.9386 7.2281 23.375 9.00001 23.375C10.7719 23.375 12.2083 21.9386 12.2083 20.1667V18.913L16.1833 18.436C17.5961 18.2664 18.3197 16.6534 17.5069 15.4855C16.6073 14.1929 16.0796 12.6783 15.9813 11.1066L15.7235 6.98421C15.5614 4.39336 13.4129 2.37501 10.817 2.37501H10.1667V1.50001ZM7.54168 20.1667C7.54168 20.9721 8.1946 21.625 9.00001 21.625C9.80543 21.625 10.4583 20.9721 10.4583 20.1667V19.2917H7.54168V20.1667Z" fill="#BDBDBD"/>
</svg>
