<svg width="22" height="26" viewBox="0 0 22 26" fill="none" xmlns="http://www.w3.org/2000/svg">
<path d="M13.3947 1.68707C12.0848 0.291974 9.91515 0.291971 8.60526 1.68707L2.2073 8.5012C1.83985 8.89255 1.59294 9.38729 1.49766 9.92309C0.720649 14.2928 0.663293 18.7663 1.328 23.1557L1.56334 24.7097C1.63767 25.2005 2.04763 25.5624 2.52937 25.5624H6.99998C7.36817 25.5624 7.66665 25.2546 7.66665 24.8749V15.2499H14.3333V24.8749C14.3333 25.2546 14.6318 25.5624 15 25.5624H19.4705C19.9523 25.5624 20.3622 25.2005 20.4366 24.7097L20.6719 23.1557C21.3366 18.7663 21.2792 14.2928 20.5022 9.92309C20.407 9.38729 20.16 8.89255 19.7926 8.5012L13.3947 1.68707Z" fill="white"/>
</svg>
