<svg width="24" height="24" viewBox="0 0 24 24" fill="none" xmlns="http://www.w3.org/2000/svg">
<path d="M17.9293 23C17.462 23 17.0828 22.6208 17.0828 22.1535C17.0828 21.6863 17.462 21.3071 17.9293 21.3071C17.9293 20.8398 18.3085 20.4606 18.7761 20.4606C19.2438 20.4606 19.6222 20.8398 19.6222 21.3071C19.6222 22.2407 18.8629 23 17.9293 23Z" fill="#1F2128"/>
<path d="M18.7757 22.1535C18.3085 22.1535 17.9293 21.7743 17.9293 21.3071V13.0054C17.9293 12.5381 18.3085 12.1589 18.7757 12.1589C19.243 12.1589 19.6222 12.5381 19.6222 13.0054V21.3071C19.6222 21.7743 19.243 22.1535 18.7757 22.1535Z" fill="#1F2128"/>
<path d="M17.9293 23L2.69293 23C2.22568 23 1.84646 22.6208 1.84646 22.1535C1.84646 21.6863 2.22568 21.3071 2.69293 21.3071L17.9293 21.3071C18.3965 21.3071 18.7757 21.6863 18.7757 22.1535C18.7757 22.6208 18.3965 23 17.9293 23Z" fill="#1F2128"/>
<path d="M2.69293 23C1.75928 23 1 22.2407 1 21.3071C1 20.8398 1.37922 20.4606 1.84646 20.4606C2.31371 20.4606 2.69293 20.8398 2.69293 21.3071V21.3083C3.16017 21.3083 3.53939 21.6867 3.53939 22.154C3.53939 22.6212 3.16017 23 2.69293 23Z" fill="#1F2128"/>
<path d="M1.84646 22.1535C1.37922 22.1535 1 21.7743 1 21.3071V6.07074C1 5.60349 1.37922 5.22427 1.84646 5.22427C2.31371 5.22427 2.69293 5.60349 2.69293 6.07074V21.3071C2.69293 21.7743 2.31371 22.1535 1.84646 22.1535Z" fill="#1F2128"/>
<path d="M1.84604 6.9172C1.37837 6.9172 1 6.53798 1 6.07074C1 5.13709 1.75928 4.37781 2.69293 4.37781C3.16017 4.37781 3.53939 4.75703 3.53939 5.22427C3.53939 5.69152 3.16017 6.07074 2.69293 6.07074C2.69293 6.53798 2.31371 6.9172 1.84604 6.9172Z" fill="#1F2128"/>
<path d="M10.9946 6.07074H2.69293C2.22568 6.07074 1.84646 5.69152 1.84646 5.22427C1.84646 4.75703 2.22568 4.37781 2.69293 4.37781H10.9946C11.4619 4.37781 11.8411 4.75703 11.8411 5.22427C11.8411 5.69152 11.4623 6.07074 10.9946 6.07074Z" fill="#1F2128"/>
<path d="M10.2819 11.5719C10.0652 11.5719 9.8485 11.4894 9.68344 11.3239C9.35289 10.9933 9.35289 10.4575 9.68344 10.127L17.9504 1.86001C18.2805 1.52946 18.8172 1.52946 19.1473 1.86001C19.4779 2.19055 19.4779 2.72636 19.1473 3.05691L10.8803 11.3239C10.7153 11.4894 10.4982 11.5719 10.2819 11.5719Z" fill="#1F2128"/>
<path d="M9.46548 15.3818C9.40665 15.3818 9.34697 15.3759 9.2873 15.3628C8.83021 15.265 8.53902 14.8147 8.63721 14.358L9.45447 10.5481C9.55224 10.0906 10.0034 9.79814 10.4596 9.89802C10.9167 9.99579 11.2079 10.4461 11.1097 10.9028L10.2925 14.7127C10.207 15.1101 9.85612 15.3818 9.46548 15.3818Z" fill="#1F2128"/>
<path d="M13.2746 14.5641C13.0579 14.5641 12.8412 14.4816 12.6761 14.3161C12.3456 13.9856 12.3456 13.4498 12.6761 13.1192L20.9431 4.85225C21.2732 4.52171 21.8099 4.52171 22.14 4.85225C22.4705 5.1828 22.4705 5.71861 22.14 6.04915L13.873 14.3161C13.708 14.4816 13.4913 14.5641 13.2746 14.5641Z" fill="#1F2128"/>
<path d="M9.46378 15.3818C9.07314 15.3818 8.72228 15.1101 8.63679 14.7131C8.53902 14.256 8.82978 13.8057 9.28687 13.708L13.0968 12.8903C13.5526 12.7933 14.0038 13.0828 14.102 13.5399C14.1997 13.997 13.909 14.4473 13.4519 14.5451L9.64196 15.3628C9.58229 15.3755 9.52261 15.3818 9.46378 15.3818Z" fill="#1F2128"/>
<path d="M20.0454 7.79371C19.8287 7.79371 19.612 7.71118 19.447 7.5457L16.4543 4.55303C16.1238 4.22249 16.1238 3.68667 16.4543 3.35613C16.7844 3.02559 17.3211 3.02559 17.6512 3.35613L20.6439 6.3488C20.9744 6.67934 20.9744 7.21516 20.6439 7.5457C20.4788 7.71118 20.2621 7.79371 20.0454 7.79371Z" fill="#1F2128"/>
<path d="M21.5415 6.29717C21.3248 6.29717 21.1082 6.21464 20.9427 6.04915C20.6121 5.71861 20.6126 5.1828 20.9431 4.85225C21.1776 4.61821 21.3062 4.29867 21.3062 3.95458C21.3062 3.61049 21.1771 3.29138 20.9427 3.05733C20.4729 2.58712 19.6163 2.58754 19.1473 3.05691C18.8168 3.38745 18.2805 3.38745 17.9496 3.05733C17.619 2.72678 17.6199 2.19055 17.9504 1.86001C18.5049 1.30515 19.2481 1 20.0446 1C20.8411 1 21.5856 1.30557 22.1396 1.86001C22.6936 2.41402 22.9987 3.15763 22.9987 3.95458C22.9987 4.75152 22.6936 5.49557 22.1391 6.04958C21.9749 6.21464 21.7582 6.29717 21.5415 6.29717Z" fill="#1F2128"/>
</svg>
