<svg width="26" height="26" viewBox="0 0 26 26" fill="none" xmlns="http://www.w3.org/2000/svg">
<g filter="url(#filter0_d_414_1799)">
<path fill-rule="evenodd" clip-rule="evenodd" d="M17.1031 1.72676C10.8771 -0.539337 3.99285 2.67083 1.72676 8.89687C-0.539337 15.1229 2.67083 22.0072 8.89687 24.2732C15.1229 26.5393 22.0071 23.3292 24.2732 17.1031C24.819 15.6037 25.057 14.0374 24.9883 12.4765C24.9189 10.9022 24.5381 9.35685 23.8727 7.92996C23.2074 6.50307 22.2683 5.21798 21.107 4.15295C20.8499 3.91726 20.4505 3.93454 20.2148 4.19156C19.9792 4.44857 19.9964 4.84798 20.2534 5.08366C21.2923 6.0363 22.1326 7.18635 22.7282 8.46365C23.3238 9.74095 23.6647 11.1239 23.7267 12.5321C23.7882 13.9279 23.5753 15.3285 23.0866 16.6712C21.059 22.2419 14.8995 25.1141 9.32878 23.0866C3.75812 21.059 0.885857 14.8995 2.91341 9.32878C4.94097 3.75812 11.1005 0.885857 16.6712 2.91341C16.9989 3.03268 17.3612 2.86373 17.4805 2.53604C17.5998 2.20835 17.4308 1.84602 17.1031 1.72676ZM17.1526 16.7849C16.8596 16.5959 16.4688 16.6802 16.2798 16.9733C15.6926 17.8836 14.6263 18.3497 13 18.3497C11.3667 18.3497 10.2604 17.878 9.60982 16.9525C9.40929 16.6672 9.01546 16.5984 8.73016 16.799C8.44487 16.9995 8.37615 17.3933 8.57667 17.6786C9.48701 18.9738 10.9852 19.6125 13 19.6125C15.0218 19.6125 16.4957 18.9682 17.341 17.6578C17.53 17.3647 17.4457 16.9739 17.1526 16.7849ZM8.79064 10.8953C9.60431 10.8953 10.2639 11.5549 10.2639 12.3686C10.2639 13.1823 9.60431 13.8419 8.79064 13.8419C7.97697 13.8419 7.31736 13.1823 7.31736 12.3686C7.31736 11.5549 7.97697 10.8953 8.79064 10.8953ZM18.6827 12.3686C18.6827 11.5549 18.0231 10.8953 17.2094 10.8953C16.3957 10.8953 15.7361 11.5549 15.7361 12.3686C15.7361 13.1823 16.3957 13.8419 17.2094 13.8419C18.0231 13.8419 18.6827 13.1823 18.6827 12.3686Z" fill="white"/>
</g>
<path fill-rule="evenodd" clip-rule="evenodd" d="M21 9C23.2091 9 25 7.20914 25 5C25 2.79086 23.2091 1 21 1C18.7909 1 17 2.79086 17 5C17 7.20914 18.7909 9 21 9Z" fill="#7737FF"/>
<defs>
<filter id="filter0_d_414_1799" x="0" y="0" width="26" height="26" filterUnits="userSpaceOnUse" color-interpolation-filters="sRGB">
<feFlood flood-opacity="0" result="BackgroundImageFix"/>
<feColorMatrix in="SourceAlpha" type="matrix" values="0 0 0 0 0 0 0 0 0 0 0 0 0 0 0 0 0 0 127 0" result="hardAlpha"/>
<feOffset/>
<feGaussianBlur stdDeviation="0.5"/>
<feColorMatrix type="matrix" values="0 0 0 0 0.14902 0 0 0 0 0.14902 0 0 0 0 0.14902 0 0 0 0.4 0"/>
<feBlend mode="normal" in2="BackgroundImageFix" result="effect1_dropShadow_414_1799"/>
<feBlend mode="normal" in="SourceGraphic" in2="effect1_dropShadow_414_1799" result="shape"/>
</filter>
</defs>
</svg>
