<svg width="23" height="23" viewBox="0 0 23 23" fill="none" xmlns="http://www.w3.org/2000/svg">
<path fill-rule="evenodd" clip-rule="evenodd" d="M5.2219 0.367236C9.4566 -0.106055 13.8343 -0.106055 18.0691 0.367236C20.4322 0.631358 22.3388 2.49326 22.6163 4.86578C23.1226 9.19504 23.1226 13.5686 22.6163 17.8978C22.3388 20.2703 20.4322 22.1322 18.0691 22.3964C13.8343 22.8697 9.4566 22.8697 5.2219 22.3964C2.8587 22.1322 0.95217 20.2703 0.674681 17.8978C0.168335 13.5686 0.168335 9.19504 0.674681 4.86578C0.95217 2.49326 2.8587 0.631358 5.2219 0.367236ZM11.6455 4.493C12.217 4.493 12.6803 4.95631 12.6803 5.52784V10.347H17.4995C18.071 10.347 18.5343 10.8103 18.5343 11.3818C18.5343 11.9533 18.071 12.4166 17.4995 12.4166H12.6803V17.2357C12.6803 17.8073 12.217 18.2706 11.6455 18.2706C11.074 18.2706 10.6107 17.8073 10.6107 17.2357V12.4166H5.79159C5.22006 12.4166 4.75675 11.9533 4.75675 11.3818C4.75675 10.8103 5.22006 10.347 5.79159 10.347H10.6107V5.52784C10.6107 4.95631 11.074 4.493 11.6455 4.493Z" fill="#BDBDBD"/>
</svg>
