<svg width="20" height="24" viewBox="0 0 20 24" fill="none" xmlns="http://www.w3.org/2000/svg">
<path d="M12.245 1.3424C11.017 0.0318461 8.98293 0.0318441 7.75491 1.34239L1.75682 7.74354C1.41234 8.11117 1.18086 8.57593 1.09154 9.07926C0.363089 13.1841 0.309318 17.3865 0.932485 21.5099L1.15311 22.9697C1.2228 23.4308 1.60713 23.7707 2.05876 23.7707H6.24996C6.59514 23.7707 6.87496 23.4816 6.87496 23.1249V14.0832H13.125V23.1249C13.125 23.4816 13.4048 23.7707 13.75 23.7707H17.9411C18.3927 23.7707 18.7771 23.4308 18.8468 22.9697L19.0674 21.5099C19.6905 17.3865 19.6368 13.1841 18.9083 9.07926C18.819 8.57593 18.5875 8.11117 18.2431 7.74355L12.245 1.3424Z" fill="#BDBDBD"/>
</svg>
