<svg width="23" height="23" viewBox="0 0 23 23" fill="none" xmlns="http://www.w3.org/2000/svg">
<path d="M14.7642 17.785C14.5842 17.7829 14.4077 17.7359 14.2506 17.648L11.2588 16.0678L8.25117 17.6243C8.07069 17.7202 7.86685 17.7633 7.66302 17.7486C7.45919 17.734 7.2636 17.6622 7.09868 17.5415C6.93375 17.4209 6.80616 17.2562 6.73051 17.0663C6.65487 16.8765 6.63424 16.6692 6.67098 16.4682L7.26092 13.1313L4.8485 10.761C4.70637 10.6182 4.60669 10.4388 4.56059 10.2426C4.51449 10.0465 4.52378 9.84141 4.58741 9.65024C4.65104 9.45907 4.76652 9.28933 4.92097 9.15995C5.07542 9.03057 5.26277 8.94663 5.46213 8.9175L8.8253 8.43027L10.3423 5.40158C10.4299 5.21605 10.5698 5.06015 10.7448 4.95301C10.9197 4.84587 11.1222 4.79216 11.3273 4.79847C11.5307 4.79857 11.7299 4.85625 11.9019 4.96485C12.0738 5.07344 12.2116 5.22851 12.2991 5.41211L13.7766 8.45661L17.1213 8.957C17.3221 8.98718 17.5105 9.073 17.6651 9.20473C17.8197 9.33645 17.9343 9.50883 17.996 9.70234C18.0577 9.89585 18.0639 10.1028 18.0141 10.2996C17.9642 10.4965 17.8602 10.6755 17.7139 10.8164L15.2777 13.1708L15.8334 16.5156C15.859 16.6713 15.8504 16.8306 15.8084 16.9827C15.7663 17.1348 15.6917 17.2759 15.5898 17.3963C15.4879 17.5168 15.3611 17.6136 15.2181 17.6803C15.0751 17.7469 14.9193 17.7818 14.7615 17.7824L14.7642 17.785ZM11.2667 14.8722L14.751 16.7263C14.7562 16.7305 14.7627 16.7329 14.7694 16.7329C14.7762 16.7329 14.7827 16.7305 14.7879 16.7263C14.7937 16.7229 14.7982 16.7177 14.8006 16.7115C14.803 16.7052 14.8031 16.6984 14.801 16.692L14.1505 12.7995L16.9896 10.0631C16.9926 10.0579 16.9942 10.052 16.9942 10.046C16.9942 10.04 16.9926 10.0341 16.9896 10.0289C16.9896 10.0078 16.9712 10.0052 16.9606 10.0052L13.0628 9.41789L11.3457 5.873C11.3439 5.86627 11.3396 5.86043 11.3338 5.85656C11.328 5.85269 11.321 5.85105 11.3141 5.85193C11.3076 5.85135 11.301 5.85281 11.2954 5.85611C11.2897 5.85941 11.2852 5.8644 11.2825 5.87037L9.52058 9.39682L5.61489 9.94462C5.60839 9.94437 5.60201 9.94632 5.59675 9.95014C5.5915 9.95396 5.58768 9.95944 5.58592 9.96569C5.58206 9.97106 5.57998 9.97751 5.57998 9.98412C5.57998 9.99074 5.58206 9.99719 5.58592 10.0026L8.40392 12.7705L7.71654 16.6525C7.71526 16.6554 7.71458 16.6586 7.71455 16.6618C7.71452 16.665 7.71514 16.6682 7.71637 16.6711C7.7176 16.6741 7.71942 16.6768 7.72171 16.679C7.724 16.6812 7.72672 16.683 7.7297 16.6841C7.73521 16.6876 7.74161 16.6895 7.74814 16.6895C7.75467 16.6895 7.76107 16.6876 7.76658 16.6841L11.2667 14.8722Z" fill="#343A3D"/>
<path d="M11.2931 22.5809C9.05982 22.5814 6.87656 21.9196 5.01946 20.6792C3.16235 19.4388 1.71482 17.6755 0.859943 15.6123C0.00506943 13.5492 -0.218741 11.2788 0.216819 9.08844C0.65238 6.89806 1.72774 4.88605 3.3069 3.3069C4.88605 1.72774 6.89806 0.65238 9.08844 0.216819C11.2788 -0.218741 13.5492 0.00506943 15.6123 0.859943C17.6755 1.71482 19.4388 3.16235 20.6792 5.01946C21.9196 6.87656 22.5814 9.05982 22.5809 11.2931C22.5774 14.2857 21.387 17.1548 19.2709 19.2709C17.1548 21.387 14.2857 22.5774 11.2931 22.5809ZM11.2931 1.0561C9.26828 1.05558 7.28881 1.65552 5.605 2.78006C3.92119 3.9046 2.60868 5.50321 1.83346 7.37373C1.05825 9.24425 0.855144 11.3026 1.24984 13.2886C1.64454 15.2746 2.61931 17.0989 4.05088 18.5308C5.48244 19.9627 7.30649 20.938 9.29234 21.3332C11.2782 21.7284 13.3366 21.5258 15.2074 20.7511C17.0781 19.9763 18.677 18.6642 19.802 16.9807C20.927 15.2972 21.5274 13.3179 21.5274 11.2931C21.5246 8.57938 20.4456 5.97758 18.5269 4.05845C16.6083 2.13932 14.0068 1.05958 11.2931 1.0561Z" fill="#343A3D"/>
</svg>
