<svg width="19" height="22" viewBox="0 0 19 22" fill="none" xmlns="http://www.w3.org/2000/svg">
<path d="M12.3681 18.0424C12.3712 18.0913 12.3712 18.1403 12.3681 18.1893C12.3681 18.9686 12.043 19.7159 11.4644 20.267C10.8858 20.818 10.1011 21.1276 9.28285 21.1276C8.46459 21.1276 7.67986 20.818 7.10126 20.267C6.52267 19.7159 6.19762 18.9686 6.19762 18.1893C6.19454 18.1403 6.19454 18.0913 6.19762 18.0424" stroke="black" stroke-linejoin="round"/>
<path d="M11.1339 3.49762V2.90996C11.1339 2.44239 10.9389 1.99396 10.5917 1.66334C10.2446 1.33272 9.77373 1.14697 9.28278 1.14697C8.79183 1.14697 8.32098 1.33272 7.97383 1.66334C7.62667 1.99396 7.43164 2.44239 7.43164 2.90996V3.49762" stroke="black" stroke-miterlimit="10"/>
<path d="M3.72951 8.78664C3.72951 7.38392 4.3146 6.03865 5.35607 5.04678C6.39754 4.05491 7.81007 3.49768 9.28292 3.49768C10.7558 3.49768 12.1683 4.05491 13.2098 5.04678C14.2512 6.03865 14.8363 7.38392 14.8363 8.78664V9.86206C14.8356 11.455 15.3577 13.0084 16.3296 14.3048L17.9216 16.4262C17.9216 16.4262 15.91 18.1892 9.28292 18.1892C2.65586 18.1892 0.644287 16.4262 0.644287 16.4262L2.23626 14.3048C3.20818 13.0084 3.73028 11.455 3.72951 9.86206V8.78664Z" stroke="black" stroke-linejoin="round"/>
</svg>
