<svg width="20" height="21" viewBox="0 0 20 21" fill="none" xmlns="http://www.w3.org/2000/svg">
<path d="M1.24802 20.8307C1.06319 20.8309 0.880666 20.7897 0.713899 20.71C0.499465 20.6108 0.318112 20.4521 0.191519 20.2526C0.0649247 20.0532 -0.00155442 19.8215 2.75917e-05 19.5852V2.13905C0.000707163 1.57194 0.226289 1.02826 0.62729 0.627263C1.02829 0.226261 1.57197 0.000679571 2.13907 0L17.5772 0C18.1445 0.000677822 18.6885 0.226177 19.0899 0.627106C19.4913 1.02803 19.7174 1.57171 19.7188 2.13905V19.5827C19.7189 19.819 19.6517 20.0505 19.5252 20.2501C19.3986 20.4497 19.2179 20.6091 19.0041 20.7098C18.7903 20.8105 18.5522 20.8483 18.3178 20.8188C18.0833 20.7893 17.8621 20.6936 17.6799 20.5431L9.87097 14.072L2.03893 20.5431C1.81633 20.7272 1.53693 20.8288 1.24802 20.8307ZM2.13907 1.02715C1.84418 1.02715 1.56137 1.1443 1.35285 1.35282C1.14433 1.56134 1.02718 1.84415 1.02718 2.13905V19.5852C1.02528 19.6268 1.03638 19.6679 1.05893 19.7029C1.08148 19.7379 1.11436 19.765 1.15301 19.7804C1.18986 19.7996 1.23169 19.8072 1.27295 19.8022C1.31421 19.7971 1.35298 19.7797 1.38412 19.7522L9.87097 12.7393L18.345 19.7496C18.3768 19.7758 18.4154 19.7924 18.4563 19.7976C18.4972 19.8027 18.5388 19.7962 18.5761 19.7787C18.6135 19.7613 18.6451 19.7336 18.6674 19.6989C18.6896 19.6642 18.7016 19.6239 18.7019 19.5827V2.13905C18.7016 1.99204 18.6722 1.84655 18.6154 1.71096C18.5586 1.57538 18.4755 1.45236 18.371 1.34901C18.2664 1.24566 18.1425 1.16402 18.0062 1.10878C17.87 1.05354 17.7242 1.0258 17.5772 1.02715H2.13907Z" fill="#343A3D"/>
</svg>
