<svg width="24" height="24" viewBox="0 0 24 24" fill="none" xmlns="http://www.w3.org/2000/svg">
<path d="M22.2459 19.7777H7.29208C6.8335 19.7777 6.46131 20.2755 6.46131 20.8889C6.46131 21.5022 6.8335 22 7.29208 22H22.2459C22.7045 22 23.0767 21.5022 23.0767 20.8888C23.0767 20.2755 22.7045 19.7777 22.2459 19.7777ZM7.29208 4.22222H22.2459C22.7045 4.22222 23.0767 3.72447 23.0767 3.11111C23.0767 2.49775 22.7045 2 22.2459 2H7.29208C6.8335 2.00004 6.46131 2.49778 6.46131 3.11115C6.46131 3.72447 6.8335 4.22222 7.29208 4.22222ZM22.2459 10.8889H7.29208C6.8335 10.8889 6.46131 11.3867 6.46131 12C6.46131 12.6134 6.8335 13.1111 7.29208 13.1111H22.2459C22.7045 13.1111 23.0767 12.6133 23.0767 12C23.0767 11.3867 22.7045 10.8889 22.2459 10.8889Z" fill="#2E313C"/>
<path d="M4.60986 2.5189C4.59714 2.47443 4.56329 2.44201 4.52255 2.43529L3.37791 2.2464L2.86601 1.06848C2.84779 1.02654 2.81018 1 2.76901 1C2.72783 1 2.69023 1.02654 2.67201 1.06848L2.16008 2.2464L1.01547 2.43529C0.97473 2.44201 0.940872 2.47443 0.928151 2.5189C0.915423 2.56338 0.926038 2.61219 0.955526 2.64483L1.78375 3.56172L1.58826 4.85639C1.5813 4.90248 1.59798 4.94905 1.63129 4.97654C1.65014 4.99209 1.67246 5 1.69489 5C1.71211 5 1.72939 4.99534 1.74521 4.98589L2.769 4.37462L3.79276 4.98588C3.82921 5.00764 3.87337 5.00402 3.90668 4.97654C3.93999 4.94905 3.95668 4.90247 3.94972 4.85637L3.75417 3.56172L4.58249 2.64482C4.61197 2.61219 4.62259 2.56337 4.60986 2.5189Z" fill="#2E313C"/>
<path d="M4.60986 11.5189C4.59714 11.4744 4.56329 11.442 4.52255 11.4353L3.37791 11.2464L2.86601 10.0685C2.84779 10.0265 2.81018 10 2.76901 10C2.72783 10 2.69023 10.0265 2.67201 10.0685L2.16008 11.2464L1.01547 11.4353C0.97473 11.442 0.940872 11.4744 0.928151 11.5189C0.915423 11.5634 0.926038 11.6122 0.955526 11.6448L1.78375 12.5617L1.58826 13.8564C1.5813 13.9025 1.59798 13.9491 1.63129 13.9765C1.65014 13.9921 1.67246 14 1.69489 14C1.71211 14 1.72939 13.9953 1.74521 13.9859L2.769 13.3746L3.79276 13.9859C3.82921 14.0076 3.87337 14.004 3.90668 13.9765C3.93999 13.9491 3.95668 13.9025 3.94972 13.8564L3.75417 12.5617L4.58249 11.6448C4.61197 11.6122 4.62259 11.5634 4.60986 11.5189Z" fill="#2E313C"/>
<path d="M4.60986 20.5189C4.59714 20.4744 4.56329 20.442 4.52255 20.4353L3.37791 20.2464L2.86601 19.0685C2.84779 19.0265 2.81018 19 2.76901 19C2.72783 19 2.69023 19.0265 2.67201 19.0685L2.16008 20.2464L1.01547 20.4353C0.97473 20.442 0.940872 20.4744 0.928151 20.5189C0.915423 20.5634 0.926038 20.6122 0.955526 20.6448L1.78375 21.5617L1.58826 22.8564C1.5813 22.9025 1.59798 22.9491 1.63129 22.9765C1.65014 22.9921 1.67246 23 1.69489 23C1.71211 23 1.72939 22.9953 1.74521 22.9859L2.769 22.3746L3.79276 22.9859C3.82921 23.0076 3.87337 23.004 3.90668 22.9765C3.93999 22.9491 3.95668 22.9025 3.94972 22.8564L3.75417 21.5617L4.58249 20.6448C4.61197 20.6122 4.62259 20.5634 4.60986 20.5189Z" fill="#2E313C"/>
</svg>
