<svg width="22" height="22" viewBox="0 0 22 22" fill="none" xmlns="http://www.w3.org/2000/svg">
<path d="M11 22.0004C4.93453 22.0004 0 17.0657 0 11.0001C0 4.93473 4.93453 0 11 0C17.0654 0 22 4.93473 22 11.0001C22 17.0657 17.0654 22.0004 11 22.0004ZM11 1.50584C5.76485 1.50584 1.50584 5.76495 1.50574 11.0001C1.50574 16.2353 5.76475 20.4945 11 20.4946C16.235 20.4945 20.4941 16.2353 20.4941 11C20.4941 5.76505 16.235 1.50584 11 1.50584Z" fill="#F9F9F9"/>
<path d="M12.4772 15.7116C12.1831 16.0056 11.7064 16.0055 11.4124 15.7116C11.1183 15.4175 11.1183 14.9408 11.4125 14.6467L14.3058 11.7536L5.92758 11.7528C5.51177 11.7527 5.17476 11.4157 5.17476 10.9996C5.17486 10.5838 5.51187 10.2469 5.92768 10.2469L14.3062 10.2477L11.4122 7.35401C11.1182 7.05997 11.1182 6.58312 11.4122 6.28918C11.5593 6.14221 11.752 6.06863 11.9447 6.06863C12.1374 6.06863 12.33 6.14221 12.4771 6.28908L16.6562 10.4681C16.7974 10.6092 16.8767 10.8007 16.8767 11.0005C16.8766 11.2002 16.7973 11.3916 16.6561 11.533L12.4772 15.7116Z" fill="#F9F9F9"/>
</svg>
