<svg width="23" height="22" viewBox="0 0 23 22" fill="none" xmlns="http://www.w3.org/2000/svg">
<path d="M11.002 22.0004C17.0674 22.0004 22.002 17.0657 22.002 11.0001C22.002 4.93473 17.0674 0 11.002 0C4.93659 0 0.00195312 4.93473 0.00195312 11.0001C0.00195312 17.0657 4.93659 22.0004 11.002 22.0004ZM11.002 1.50584C16.2371 1.50584 20.4961 5.76495 20.4962 11.0001C20.4962 16.2353 16.2372 20.4945 11.002 20.4946C5.76691 20.4945 1.50789 16.2353 1.50789 11C1.50789 5.76505 5.76691 1.50584 11.002 1.50584Z" fill="#2E313C"/>
<path d="M9.52478 15.7116C9.81882 16.0056 10.2956 16.0055 10.5895 15.7116C10.8836 15.4175 10.8836 14.9408 10.5894 14.6467L7.69619 11.7536L16.0744 11.7528C16.4902 11.7527 16.8272 11.4157 16.8272 10.9996C16.8271 10.5838 16.4901 10.2469 16.0743 10.2469L7.69578 10.2477L10.5897 7.35401C10.8837 7.05997 10.8837 6.58312 10.5897 6.28918C10.4426 6.14221 10.25 6.06863 10.0572 6.06863C9.86459 6.06863 9.67195 6.14221 9.52488 6.28908L5.34577 10.4681C5.20452 10.6092 5.12522 10.8007 5.12522 11.0005C5.12532 11.2002 5.20463 11.3916 5.34587 11.533L9.52478 15.7116Z" fill="#2E313C"/>
</svg>
