<svg width="22" height="20" viewBox="0 0 22 20" fill="none" xmlns="http://www.w3.org/2000/svg">
<path d="M20.9 17.8H1.1C0.492807 17.8 0 18.2928 0 18.9C0 19.5072 0.492807 20 1.1 20H20.9C21.5072 20 22 19.5072 22 18.8999C22 18.2928 21.5072 17.8 20.9 17.8ZM1.1 2.39995H20.9C21.5072 2.39995 22 1.90718 22 1.29995C22 0.692722 21.5072 0.199951 20.9 0.199951H1.1C0.492807 0.199987 0 0.692758 0 1.29999C0 1.90718 0.492807 2.39995 1.1 2.39995ZM20.9 8.99995H1.1C0.492807 8.99995 0 9.49276 0 10.1C0 10.7072 0.492807 11.2 1.1 11.2H20.9C21.5072 11.2 22 10.7072 22 10.1C22 9.49279 21.5072 8.99995 20.9 8.99995Z" fill="white"/>
</svg>
