<svg width="188" height="188" viewBox="0 0 188 188" fill="none" xmlns="http://www.w3.org/2000/svg">
<rect width="188" height="188" rx="15" fill="url(#paint0_linear_414_1712)"/>
<path d="M119.354 121.075H68.2795C66.6147 121.073 65.0186 120.41 63.8414 119.233C62.6642 118.056 62.002 116.46 62 114.795V79.5002C61.9981 78.674 62.159 77.8555 62.4736 77.0915C62.7883 76.3276 63.2504 75.6331 63.8336 75.0478C64.4168 74.4626 65.1096 73.998 65.8725 73.6807C66.6354 73.3634 67.4533 73.1996 68.2795 73.1987H73.9046C74.744 73.1946 75.5626 72.9378 76.2538 72.4617C76.9451 71.9856 77.4768 71.3123 77.7797 70.5295C78.3007 69.1975 79.2106 68.0532 80.3909 67.2453C81.5711 66.4375 82.9672 66.0036 84.3975 66H103.177C104.608 66.0026 106.004 66.4361 107.185 67.2441C108.365 68.052 109.275 69.1969 109.795 70.5295C110.098 71.3123 110.63 71.9856 111.321 72.4617C112.012 72.9378 112.831 73.1946 113.67 73.1987H119.28C120.945 73.2006 122.541 73.8628 123.719 75.04C124.896 76.2173 125.558 77.8133 125.56 79.4782V114.891C125.56 115.705 125.399 116.51 125.087 117.262C124.775 118.014 124.318 118.697 123.741 119.271C123.164 119.846 122.48 120.301 121.727 120.61C120.974 120.92 120.168 121.077 119.354 121.075ZM68.2795 76.1399C67.3942 76.1399 66.5451 76.4916 65.919 77.1177C65.293 77.7437 64.9412 78.5928 64.9412 79.4782V114.773C64.9393 115.213 65.0242 115.649 65.191 116.056C65.3578 116.463 65.6033 116.833 65.9134 117.146C66.2234 117.458 66.592 117.706 66.9981 117.875C67.4041 118.045 67.8396 118.132 68.2795 118.133H119.354C120.213 118.131 121.036 117.789 121.642 117.181C122.249 116.573 122.589 115.749 122.589 114.891V79.4782C122.589 78.5928 122.238 77.7437 121.612 77.1177C120.986 76.4916 120.136 76.1399 119.251 76.1399H113.655C112.223 76.1336 110.825 75.696 109.645 74.8842C108.465 74.0723 107.556 72.9239 107.038 71.5883C106.734 70.8109 106.203 70.1427 105.515 69.6706C104.826 69.1986 104.012 68.9444 103.177 68.9412H84.3828C83.5488 68.9439 82.7351 69.1979 82.0478 69.6702C81.3604 70.1424 80.8314 70.8109 80.5298 71.5883C80.0097 72.9227 79.1007 74.0701 77.9207 74.8816C76.7407 75.6932 75.3441 76.1316 73.912 76.1399H68.2795Z" fill="#F9F9F9"/>
<path d="M93.7801 110.199C90.8605 110.201 88.006 109.336 85.5774 107.716C83.1489 106.095 81.2553 103.791 80.136 101.095C79.0167 98.3981 78.7219 95.4303 79.289 92.5663C79.8561 89.7023 81.2596 87.0707 83.322 85.0042C85.3844 82.9376 88.0132 81.5289 90.8761 80.9561C93.7389 80.3833 96.7074 80.6722 99.4061 81.7861C102.105 82.9 104.413 84.789 106.038 87.2144C107.664 89.6397 108.533 92.4925 108.538 95.4121C108.54 97.352 108.159 99.2733 107.419 101.066C106.678 102.859 105.592 104.489 104.221 105.862C102.851 107.235 101.224 108.325 99.4321 109.069C97.6406 109.813 95.7201 110.197 93.7801 110.199ZM93.7801 83.6178C91.44 83.6163 89.1522 84.3093 87.2062 85.6089C85.2602 86.9085 83.7436 88.7564 82.8484 90.9185C81.9532 93.0806 81.7197 95.4597 82.1775 97.7545C82.6353 100.049 83.7637 102.157 85.42 103.81C87.0762 105.463 89.1857 106.588 91.4815 107.041C93.7772 107.495 96.1558 107.257 98.3162 106.357C100.477 105.458 102.322 103.938 103.618 101.99C104.914 100.041 105.602 97.7522 105.597 95.4121C105.579 92.2883 104.327 89.2982 102.113 87.0942C99.8995 84.8901 96.9039 83.651 93.7801 83.6472V83.6178Z" fill="#F9F9F9"/>
<defs>
<linearGradient id="paint0_linear_414_1712" x1="255.435" y1="246.489" x2="21.5472" y2="265.488" gradientUnits="userSpaceOnUse">
<stop stop-color="#5B86E5"/>
<stop offset="1" stop-color="#36DCD8"/>
</linearGradient>
</defs>
</svg>
