<svg width="21" height="22" viewBox="0 0 21 22" fill="none" xmlns="http://www.w3.org/2000/svg">
<path d="M18.7694 21.0646L10.0405 13.8346L1.28399 21.0674C1.1696 21.1629 1.03031 21.2237 0.882516 21.2428C0.734719 21.2618 0.584557 21.2382 0.44969 21.1749C0.314822 21.1115 0.200857 21.0109 0.121195 20.885C0.0415339 20.759 -0.000511141 20.613 4.68994e-06 20.4639V1.74413C0.000733374 1.28178 0.184724 0.83858 0.511654 0.511649C0.838585 0.184719 1.28179 0.000728684 1.74414 0H18.3093C18.7721 -5.75717e-07 19.216 0.183668 19.5435 0.510677C19.8711 0.837686 20.0554 1.28131 20.0562 1.74413V20.4612C20.056 20.6102 20.0134 20.7561 19.9334 20.8819C19.8534 21.0076 19.7392 21.108 19.6043 21.1713C19.4694 21.2346 19.3192 21.2581 19.1714 21.2392C19.0235 21.2204 18.8841 21.1598 18.7694 21.0646Z" fill="#FF0F82"/>
</svg>
