<svg width="22" height="19" viewBox="0 0 22 19" fill="none" xmlns="http://www.w3.org/2000/svg">
<path d="M21.0772 5.44964C20.9425 4.29346 20.4831 3.19906 19.7522 2.29313C19.0213 1.3872 18.0488 0.706785 16.9472 0.330642C15.8456 -0.0455009 14.6601 -0.101991 13.5277 0.167711C12.3954 0.437413 11.3626 1.02228 10.5489 1.85461C9.69064 0.985206 8.59339 0.390479 7.39647 0.145957C6.19955 -0.0985643 4.95696 0.0181526 3.82651 0.481285C2.69606 0.944417 1.72876 1.73307 1.04744 2.74708C0.366129 3.76109 0.00154719 4.95471 0 6.17636C0 7.83264 0.852537 9.17821 1.72562 10.4442C3.19445 12.573 7.68054 16.6687 9.62186 18.4046C9.87175 18.6295 10.196 18.7539 10.5322 18.7539C10.8683 18.7539 11.1926 18.6295 11.4425 18.4046C13.4634 16.5763 18.2885 12.121 19.9165 9.82789C20.8423 8.56736 21.2569 7.00326 21.0772 5.44964V5.44964Z" fill="#343A3D"/>
</svg>
