<svg width="18" height="23" viewBox="0 0 18 23" fill="none" xmlns="http://www.w3.org/2000/svg">
<path d="M14.3956 10.0902H2.93617C1.6704 10.0902 0.644287 11.1224 0.644287 12.3957V19.8883C0.644287 21.1616 1.6704 22.1938 2.93617 22.1938H14.3956C15.6614 22.1938 16.6875 21.1616 16.6875 19.8883V12.3957C16.6875 11.1224 15.6614 10.0902 14.3956 10.0902Z" stroke="black" stroke-miterlimit="10"/>
<path d="M13.8225 10.0903H3.50903V6.05578C3.50903 4.68004 4.05233 3.36064 5.01941 2.38784C5.98648 1.41504 7.29812 0.86853 8.66577 0.86853V0.86853C10.0334 0.86853 11.3451 1.41504 12.3121 2.38784C13.2792 3.36064 13.8225 4.68004 13.8225 6.05578V10.0903Z" stroke="black" stroke-miterlimit="10"/>
</svg>
