<svg width="24" height="24" viewBox="0 0 24 24" fill="none" xmlns="http://www.w3.org/2000/svg">
<path d="M0.85 20.6804C0.85 22.0446 1.96026 23.15 3.31957 23.15H20.6804C22.0446 23.15 23.15 22.0397 23.15 20.6804V3.31957C23.15 1.95538 22.0397 0.85 20.6804 0.85H3.31957C1.95538 0.85 0.85 1.96026 0.85 3.31957V20.6804ZM20.6804 21.7487H3.31957C2.73262 21.7487 2.25135 21.2674 2.25135 20.6804V17.8431L6.27299 13.8214L9.7317 17.2802C10.006 17.5545 10.4472 17.5545 10.7215 17.2802L17.0527 10.949L21.7487 15.6449V20.6804C21.7487 21.2674 21.2674 21.7487 20.6804 21.7487ZM3.31957 2.25135H20.6804C21.2674 2.25135 21.7487 2.73262 21.7487 3.31957V13.661L17.5454 9.46198C17.5454 9.46196 17.5453 9.46194 17.5453 9.46192C17.271 9.18762 16.8299 9.18764 16.5556 9.46198L10.2244 15.7932L6.76565 12.3345C6.4913 12.0601 6.05018 12.0601 5.77583 12.3345L2.25135 15.859V3.31957C2.25135 2.73262 2.73262 2.25135 3.31957 2.25135ZM7.81937 9.96528C9.44875 9.96528 10.7699 8.63929 10.7699 7.01471C10.7699 5.38998 9.4441 4.06414 7.81937 4.06414C6.19464 4.06414 4.8688 5.38998 4.8688 7.01471C4.8688 8.63929 6.18999 9.96528 7.81937 9.96528ZM7.81937 5.46549C8.67579 5.46549 9.36859 6.16227 9.36859 7.01471C9.36859 7.86689 8.67155 8.56394 7.81937 8.56394C6.96719 8.56394 6.27015 7.86689 6.27015 7.01471C6.27015 6.16227 6.96295 5.46549 7.81937 5.46549Z" fill="#828796" stroke="#828796" stroke-width="0.3"/>
</svg>
