<svg width="321" height="71" viewBox="0 0 321 71" fill="none" xmlns="http://www.w3.org/2000/svg">
<g clip-path="url(#clip0_148_474)">
<path d="M27.652 71.3968C21.3432 71.6239 15.0988 70.0564 9.63869 66.875C4.99103 64.0029 1.55972 59.5127 0 54.2616L16.1962 44.8213C16.9885 47.3503 18.5838 49.5491 20.738 51.0819C22.8923 52.6147 25.4871 53.3972 28.126 53.3096C32.4713 53.3096 34.6045 52.199 34.6045 49.8984C34.6058 49.2844 34.442 48.6815 34.1304 48.1532C33.6538 47.5506 33.0269 47.0853 32.3133 46.8046L30.0221 45.932L26.5459 44.9007L22.8326 43.8694C9.63869 39.6649 3.00221 32.7632 3.00221 22.4504C2.94032 19.5916 3.50233 16.7538 4.6488 14.1362C5.79527 11.5187 7.49842 9.1848 9.63869 7.29844C14.437 3.16792 20.6282 1.03894 26.9409 1.34872C32.2359 1.27405 37.4516 2.64503 42.031 5.3152C46.4793 7.94933 49.9264 11.9968 51.8277 16.818L36.0266 26.0996C35.506 24.0928 34.3419 22.314 32.714 21.0379C31.0861 19.7618 29.0851 19.0594 27.0199 19.0392C25.8315 19.0105 24.6662 19.3726 23.7017 20.0705C23.2961 20.3404 22.9619 20.7053 22.728 21.1337C22.494 21.5621 22.3672 22.0412 22.3586 22.5297C22.3645 23.2418 22.5871 23.935 22.9967 24.5164C23.4062 25.0978 23.983 25.5395 24.6498 25.7822C27.3987 27.0204 30.2548 28.0029 33.1824 28.7174C35.8639 29.4991 38.5013 30.4259 41.0829 31.494C43.3079 32.4594 45.4263 33.6559 47.4034 35.0638C49.5731 36.5866 51.2927 38.6697 52.3808 41.0928C53.5361 43.7972 54.1018 46.7184 54.0399 49.6604C54.2206 52.6696 53.6842 55.6786 52.4751 58.4379C51.2659 61.1972 49.419 63.6272 47.0874 65.5264C41.4993 69.7197 34.6167 71.7986 27.652 71.3968Z" fill="#333333"/>
<path d="M82.9559 70.8413C79.5975 70.9232 76.2583 70.3105 73.1458 69.0413C70.0333 67.7721 67.2142 65.8735 64.8636 63.4636C62.5031 61.1646 60.6448 58.3974 59.4071 55.3382C58.1693 52.2789 57.5792 48.9945 57.6741 45.6938C57.557 42.3667 58.1363 39.052 59.3747 35.9638C60.6131 32.8755 62.483 30.0826 64.8636 27.7653C67.2276 25.3841 70.0529 23.5149 73.1647 22.2732C76.2766 21.0316 79.6089 20.4438 82.9559 20.5463C87.4614 20.4512 91.9094 21.5746 95.8338 23.7989C99.6031 25.9029 102.699 29.0393 104.761 32.8424L89.9874 41.4894C89.2782 40.255 88.251 39.2353 87.0137 38.5373C85.7764 37.8394 84.3747 37.4889 82.9559 37.5229C80.9055 37.4891 78.9223 38.2572 77.4255 39.6648C76.6785 40.4407 76.097 41.3616 75.7166 42.3709C75.3363 43.3803 75.165 44.457 75.2134 45.5352C75.165 46.6133 75.3363 47.69 75.7166 48.6994C76.097 49.7088 76.6785 50.6296 77.4255 51.4056C78.8971 52.8711 80.8833 53.6973 82.9559 53.7061C84.3956 53.8089 85.8331 53.479 87.0853 52.7585C88.3376 52.038 89.3479 50.9594 89.9874 49.6603L104.761 58.2279C102.704 62.055 99.6087 65.2183 95.8338 67.3508C91.9195 69.6261 87.4788 70.8298 82.9559 70.8413Z" fill="#333333"/>
<path d="M126.409 31.0973C127.123 28.1558 128.86 25.5673 131.307 23.799C133.954 21.975 137.105 21.0316 140.314 21.1018V39.6649C136.835 39.1047 133.274 39.8992 130.359 41.8862C128.912 43.0628 127.79 44.5919 127.098 46.3277C126.407 48.0636 126.169 49.9483 126.409 51.8023V69.4929H108.554V21.8951H126.409V31.0973Z" fill="#333333"/>
<path d="M167.966 70.8413C161.277 70.8508 154.856 68.1979 150.111 63.4636C147.621 61.2278 145.631 58.4889 144.269 55.4266C142.907 52.3642 142.206 49.0474 142.21 45.6938C142.183 42.3134 142.874 38.9661 144.236 35.8747C145.599 32.7833 147.601 30.0188 150.111 27.7653C155.02 23.13 161.504 20.5493 168.243 20.5493C174.981 20.5493 181.466 23.13 186.374 27.7653C188.784 30.0686 190.683 32.8553 191.949 35.9442C193.215 39.0331 193.819 42.355 193.722 45.6938C193.766 49.0237 193.114 52.3259 191.808 55.3868C190.501 58.4478 188.569 61.1993 186.137 63.4636C183.747 65.8423 180.91 67.7197 177.79 68.9864C174.67 70.253 171.331 70.8835 167.966 70.8413ZM162.278 51.7228C163.016 52.5029 163.904 53.1241 164.889 53.5486C165.874 53.9731 166.934 54.192 168.006 54.192C169.077 54.192 170.138 53.9731 171.122 53.5486C172.107 53.1241 172.995 52.5029 173.733 51.7228C174.501 50.9284 175.094 49.9816 175.475 48.9432C175.856 47.9049 176.016 46.798 175.946 45.6938C176.026 44.5952 175.879 43.4917 175.511 42.4537C175.144 41.4157 174.565 40.4659 173.812 39.6647C173.074 38.8846 172.186 38.2634 171.201 37.8389C170.217 37.4145 169.156 37.1956 168.085 37.1956C167.013 37.1956 165.953 37.4145 164.968 37.8389C163.983 38.2634 163.095 38.8846 162.357 39.6647C161.59 40.4592 160.996 41.406 160.615 42.4443C160.234 43.4826 160.074 44.5895 160.145 45.6938C160.064 46.7923 160.212 47.8958 160.579 48.9338C160.946 49.9718 161.525 50.9217 162.278 51.7228Z" fill="#333333"/>
<path d="M199.015 69.4927V0H216.555V69.4927H199.015Z" fill="#333333"/>
<path d="M224.139 69.4927V0H241.678V69.4927H224.139Z" fill="#333333"/>
<path d="M272.49 70.8413C269.138 70.8775 265.812 70.2438 262.706 68.9772C259.6 67.7107 256.776 65.8364 254.398 63.4637C251.975 61.1674 250.061 58.3838 248.781 55.2945C247.501 52.2053 246.885 48.8798 246.972 45.5352C246.907 42.217 247.535 38.922 248.814 35.8617C250.092 32.8015 251.995 30.0436 254.398 27.7654C259.294 23.1354 265.765 20.5571 272.49 20.5571C279.216 20.5571 285.687 23.1354 290.583 27.7654C293.006 30.0617 294.92 32.8453 296.2 35.9345C297.48 39.0237 298.096 42.3492 298.009 45.6938C298.074 49.012 297.446 52.307 296.167 55.3673C294.888 58.4276 292.986 61.1854 290.583 63.4637C288.207 65.84 285.384 67.7166 282.277 68.9834C279.171 70.2503 275.843 70.8819 272.49 70.8413ZM266.723 51.7229C267.473 52.4917 268.372 53.0992 269.363 53.5083C270.355 53.9175 271.419 54.1197 272.49 54.1028C273.553 54.138 274.611 53.9438 275.592 53.5332C276.573 53.1227 277.456 52.5053 278.179 51.7229C278.96 50.9352 279.568 49.9915 279.963 48.9529C280.357 47.9142 280.53 46.8039 280.47 45.6938C280.53 44.5838 280.357 43.4735 279.963 42.4348C279.568 41.3962 278.96 40.4524 278.179 39.6648C277.456 38.8824 276.573 38.265 275.592 37.8545C274.611 37.4439 273.553 37.2496 272.49 37.2849C271.419 37.268 270.355 37.4702 269.363 37.8794C268.372 38.2885 267.473 38.896 266.723 39.6648C265.956 40.4592 265.363 41.4061 264.982 42.4444C264.601 43.4827 264.44 44.5896 264.511 45.6938C264.44 46.7981 264.601 47.905 264.982 48.9433C265.363 49.9816 265.956 50.9284 266.723 51.7229Z" fill="#333333"/>
<path d="M317.84 67.7476C316.819 68.8044 315.588 69.6333 314.226 70.1801C312.865 70.7268 311.404 70.9792 309.939 70.9208C308.475 70.9694 307.017 70.7125 305.657 70.1663C304.298 69.6201 303.065 68.7965 302.039 67.7476C300.988 66.7135 300.152 65.4792 299.582 64.117C299.012 62.7549 298.719 61.2922 298.719 59.8146C298.719 58.3371 299.012 56.8743 299.582 55.5122C300.152 54.15 300.988 52.9157 302.039 51.8816C303.065 50.8327 304.298 50.0091 305.657 49.463C307.017 48.9168 308.475 48.6598 309.939 48.7085C311.404 48.65 312.865 48.9024 314.226 49.4492C315.588 49.9959 316.819 50.8248 317.84 51.8816C318.891 52.9157 319.726 54.15 320.296 55.5122C320.866 56.8743 321.16 58.3371 321.16 59.8146C321.16 61.2922 320.866 62.7549 320.296 64.117C319.726 65.4792 318.891 66.7135 317.84 67.7476Z" fill="#36D1DC"/>
</g>
<defs>
<clipPath id="clip0_148_474">
<rect width="321" height="71" fill="white"/>
</clipPath>
</defs>
</svg>
