<svg width="18" height="18" viewBox="0 0 18 18" fill="none" xmlns="http://www.w3.org/2000/svg">
<path d="M7.63732 7.64837L14.2808 1H17.0413V3.75071L15.8263 4.95111H13.7657V7.01172H11.6953V9.07719L10.3832 10.3942C10.7916 11.4336 10.8296 12.5819 10.4908 13.646C10.152 14.7101 9.45706 15.6251 8.52289 16.237C7.58872 16.8489 6.47231 17.1204 5.36146 17.0059C4.25061 16.8914 3.2131 16.3977 2.42345 15.6081C1.63379 14.8184 1.14018 13.7809 1.02564 12.6701C0.911098 11.5592 1.18262 10.4428 1.79453 9.50865C2.40644 8.57448 3.3214 7.87955 4.38551 7.54075C5.44962 7.20195 6.59794 7.23995 7.63732 7.64837V7.64837Z" stroke="black" stroke-linejoin="round"/>
<path d="M6.89355 11.1378C7.09764 11.3416 7.23668 11.6014 7.29308 11.8843C7.34948 12.1672 7.32072 12.4604 7.21042 12.7269C7.10012 12.9934 6.91325 13.2213 6.67345 13.3815C6.43364 13.5418 6.15169 13.6274 5.86325 13.6274C5.57481 13.6274 5.29286 13.5418 5.05305 13.3815C4.81325 13.2213 4.62638 12.9934 4.51608 12.7269C4.40579 12.4604 4.37702 12.1672 4.43342 11.8843C4.48982 11.6014 4.62886 11.3416 4.83295 11.1378C5.10632 10.8648 5.47689 10.7114 5.86325 10.7114C6.24962 10.7114 6.62018 10.8648 6.89355 11.1378Z" stroke="black" stroke-linejoin="round"/>
</svg>
