<svg width="32" height="32" viewBox="0 0 32 32" fill="none" xmlns="http://www.w3.org/2000/svg">
<path fill-rule="evenodd" clip-rule="evenodd" d="M9.60856 5.07458C13.7982 4.60633 18.1294 4.60633 22.319 5.07458C24.6571 5.33589 26.5433 7.17798 26.8178 9.52526C27.3188 13.8084 27.3188 18.1354 26.8178 22.4186C26.5433 24.7659 24.6571 26.608 22.319 26.8693C18.1294 27.3375 13.7982 27.3375 9.60855 26.8693C7.27051 26.608 5.38426 24.7659 5.10973 22.4186C4.60877 18.1354 4.60877 13.8084 5.10973 9.52526C5.38426 7.17798 7.27051 5.33589 9.60856 5.07458ZM15.9638 9.15644C16.5292 9.15644 16.9876 9.61482 16.9876 10.1803V14.9481H21.7555C22.3209 14.9481 22.7793 15.4065 22.7793 15.9719C22.7793 16.5374 22.3209 16.9958 21.7555 16.9958H16.9876V21.7636C16.9876 22.329 16.5292 22.7874 15.9638 22.7874C15.3984 22.7874 14.94 22.329 14.94 21.7636V16.9958H10.1722C9.60674 16.9958 9.14836 16.5374 9.14836 15.9719C9.14836 15.4065 9.60674 14.9481 10.1722 14.9481H14.94V10.1803C14.94 9.61482 15.3984 9.15644 15.9638 9.15644Z" fill="white"/>
</svg>
