<svg width="24" height="24" viewBox="0 0 24 24" fill="none" xmlns="http://www.w3.org/2000/svg">
<path d="M22 11C21.7348 11 21.4804 11.1054 21.2929 11.2929C21.1054 11.4804 21 11.7348 21 12V19.458C20.9997 19.8669 20.8372 20.2589 20.5481 20.5481C20.2589 20.8372 19.8669 20.9997 19.458 21H4.542C4.13312 20.9997 3.74106 20.8372 3.45193 20.5481C3.16281 20.2589 3.00026 19.8669 3 19.458V4.542C3.00026 4.13312 3.16281 3.74106 3.45193 3.45193C3.74106 3.16281 4.13312 3.00026 4.542 3H12C12.2652 3 12.5196 2.89464 12.7071 2.70711C12.8946 2.51957 13 2.26522 13 2C13 1.73478 12.8946 1.48043 12.7071 1.29289C12.5196 1.10536 12.2652 1 12 1H4.542C3.60293 1.00106 2.70262 1.37457 2.0386 2.0386C1.37457 2.70262 1.00106 3.60293 1 4.542V19.458C1.00106 20.3971 1.37457 21.2974 2.0386 21.9614C2.70262 22.6254 3.60293 22.9989 4.542 23H19.458C20.3971 22.9989 21.2974 22.6254 21.9614 21.9614C22.6254 21.2974 22.9989 20.3971 23 19.458V12C23 11.7348 22.8946 11.4804 22.7071 11.2929C22.5196 11.1054 22.2652 11 22 11Z" fill="#5B86E5"/>
<path d="M22 1H16C15.7348 1 15.4804 1.10536 15.2929 1.29289C15.1054 1.48043 15 1.73478 15 2C15 2.26522 15.1054 2.51957 15.2929 2.70711C15.4804 2.89464 15.7348 3 16 3H19.586L11.293 11.293C11.1975 11.3852 11.1213 11.4956 11.0689 11.6176C11.0165 11.7396 10.9889 11.8708 10.9877 12.0036C10.9866 12.1364 11.0119 12.2681 11.0622 12.391C11.1125 12.5138 11.1867 12.6255 11.2806 12.7194C11.3745 12.8133 11.4861 12.8875 11.609 12.9378C11.7319 12.9881 11.8636 13.0134 11.9964 13.0123C12.1292 13.0111 12.2604 12.9835 12.3824 12.9311C12.5044 12.8787 12.6148 12.8025 12.707 12.707L21 4.414V8C21 8.26522 21.1054 8.51957 21.2929 8.70711C21.4804 8.89464 21.7348 9 22 9C22.2652 9 22.5196 8.89464 22.7071 8.70711C22.8946 8.51957 23 8.26522 23 8V2C23 1.73478 22.8946 1.48043 22.7071 1.29289C22.5196 1.10536 22.2652 1 22 1Z" fill="#5B86E5"/>
</svg>
