<svg width="20" height="20" viewBox="0 0 20 20" fill="none" xmlns="http://www.w3.org/2000/svg">
<path d="M17.6471 14.4118C18.1181 14.058 18.4656 13.5649 18.6404 13.0023C18.8152 12.4398 18.8084 11.8365 18.6208 11.2781C18.4333 10.7198 18.0746 10.2346 17.5957 9.89168C17.1168 9.54873 16.542 9.36537 15.9529 9.36764H15.3882C15.7702 9.03415 16.0412 8.59205 16.1652 8.10042C16.2892 7.60879 16.2603 7.09102 16.0822 6.61629C15.9041 6.14155 15.5854 5.73245 15.1687 5.44364C14.752 5.15483 14.257 5.00006 13.75 4.99999H13.5294C13.6767 4.59948 13.7543 4.1767 13.7588 3.74999C13.7588 3.25679 13.6615 2.76844 13.4725 2.31289C13.2835 1.85734 13.0065 1.44355 12.6574 1.09522C12.3082 0.746885 11.8938 0.470846 11.4378 0.28291C10.9818 0.0949749 10.4932 -0.00116535 10 -4.87723e-06C9.80272 0.00472618 9.60608 0.0243902 9.41177 0.0588186C9.74897 0.524593 9.95064 1.07462 9.99446 1.64797C10.0383 2.22132 9.92252 2.7956 9.66002 3.30721C9.39752 3.81881 8.99852 4.24777 8.50721 4.54655C8.01591 4.84533 7.45149 5.00227 6.87647 4.99999H6.25C5.74096 4.99798 5.24351 5.15195 4.82462 5.4412C4.40573 5.73044 4.08551 6.14107 3.90705 6.61781C3.72859 7.09456 3.70047 7.61453 3.82646 8.10774C3.95245 8.60095 4.22652 9.04372 4.61177 9.37646H4.06177C3.47497 9.37665 2.90304 9.56099 2.42658 9.90351C1.95012 10.246 1.59317 10.7294 1.40605 11.2856C1.21894 11.8417 1.21108 12.4426 1.3836 13.0035C1.55612 13.5643 1.90031 14.0569 2.36765 14.4118C1.65142 14.5019 0.99749 14.8646 0.541815 15.4245C0.0861399 15.9844 -0.136217 16.6984 -0.0790274 17.418C-0.0218373 18.1376 0.3105 18.8075 0.848888 19.2883C1.38728 19.7692 2.09029 20.0241 2.81177 20H17.1882C17.9119 20.0296 18.6189 19.7782 19.1615 19.2985C19.7041 18.8188 20.0401 18.1479 20.0994 17.4261C20.1587 16.7042 19.9365 15.9875 19.4795 15.4257C19.0224 14.8639 18.3658 14.5006 17.6471 14.4118V14.4118Z" fill="#FF0F82"/>
</svg>
