<svg width="63" height="74" viewBox="0 0 63 74" fill="none" xmlns="http://www.w3.org/2000/svg">
<path d="M43.5121 36.1204C50.1617 29.4708 50.1617 18.6897 43.5121 12.0401C36.8625 5.39055 26.0814 5.39055 19.4319 12.0401C12.7823 18.6897 12.7823 29.4708 19.4319 36.1204C26.0814 42.77 36.8625 42.77 43.5121 36.1204Z" fill="#E0E0E0"/>
<path d="M62.9551 73.9368C62.9839 69.4437 61.687 65.0419 59.2266 61.2822C56.1936 56.6958 52.0712 52.9326 47.2281 50.329C42.385 47.7254 36.9721 46.3627 31.4735 46.3627C25.9749 46.3627 20.562 47.7254 15.7189 50.329C10.8758 52.9326 6.75336 56.6958 3.72033 61.2822C1.26631 65.0444 -0.0273039 69.4451 0.000436984 73.9368H62.9551Z" fill="#E0E0E0"/>
</svg>
