<svg width="26" height="26" viewBox="0 0 26 26" fill="none" xmlns="http://www.w3.org/2000/svg">
<g filter="url(#filter0_d_414_1795)">
<path fill-rule="evenodd" clip-rule="evenodd" d="M21.767 5.90769C22.0557 5.66354 22.182 5.07362 21.0689 4.01563C16.2703 -0.545084 8.15737 0.255355 3.68266 5.14613L2.5166 6.60164V3.84923L2.50968 3.74436C2.45947 3.36711 2.1422 3.07635 1.7583 3.07635C1.3395 3.07635 1 3.42238 1 3.84923V8.51172C1 9.08085 1.45267 9.54222 2.01107 9.54222H7.08523L7.18813 9.53517C7.55826 9.48399 7.84354 9.16062 7.84354 8.76934L7.83661 8.66447C7.7864 8.28723 7.46913 7.99647 7.08523 7.99647L3.36287 7.99591L3.74424 7.51306L4.82504 6.16151L5.03492 5.93885C8.92875 1.92692 15.9233 1.23867 20.0346 5.14613L20.3167 5.40705C21.0949 6.10403 21.3775 6.14206 21.6317 5.99974L21.7267 5.93885L21.767 5.90769ZM25 22.1508V17.4883C25 16.9191 24.5473 16.4578 23.9889 16.4578H18.9147L18.8119 16.4648C18.4417 16.516 18.1564 16.8394 18.1564 17.2306L18.1634 17.3355C18.2136 17.7128 18.5308 18.0035 18.9147 18.0035L22.6371 18.0041L22.2557 18.4869L21.1749 19.8385L20.9651 20.0611C17.0712 24.0731 10.0766 24.7613 5.96542 20.8539L5.68328 20.5929C4.90505 19.896 4.62252 19.8579 4.36824 20.0002L4.2733 20.0611L4.23302 20.0923C3.94429 20.3364 3.81794 20.9264 4.9311 21.9844C9.72964 26.5451 17.8426 25.7446 22.3173 20.8539L23.4834 19.3983V22.1508L23.4903 22.2556C23.5405 22.6329 23.8578 22.9236 24.2417 22.9236C24.6605 22.9236 25 22.5776 25 22.1508Z" fill="white"/>
</g>
<defs>
<filter id="filter0_d_414_1795" x="0" y="-0.000244141" width="26" height="26.0005" filterUnits="userSpaceOnUse" color-interpolation-filters="sRGB">
<feFlood flood-opacity="0" result="BackgroundImageFix"/>
<feColorMatrix in="SourceAlpha" type="matrix" values="0 0 0 0 0 0 0 0 0 0 0 0 0 0 0 0 0 0 127 0" result="hardAlpha"/>
<feOffset/>
<feGaussianBlur stdDeviation="0.5"/>
<feColorMatrix type="matrix" values="0 0 0 0 0.14902 0 0 0 0 0.14902 0 0 0 0 0.14902 0 0 0 0.4 0"/>
<feBlend mode="normal" in2="BackgroundImageFix" result="effect1_dropShadow_414_1795"/>
<feBlend mode="normal" in="SourceGraphic" in2="effect1_dropShadow_414_1795" result="shape"/>
</filter>
</defs>
</svg>
