<svg width="27" height="28" viewBox="0 0 27 28" fill="none" xmlns="http://www.w3.org/2000/svg">
<path d="M25.7945 26.175C25.5091 26.4607 25.1701 26.6873 24.7971 26.842C24.424 26.9966 24.0241 27.0762 23.6203 27.0762C23.2164 27.0762 22.8165 26.9966 22.4435 26.842C22.0704 26.6873 21.7315 26.4607 21.4461 26.175L16.0222 20.751C17.0535 20.449 17.9922 19.8925 18.7521 19.1326C19.512 18.3727 20.0685 17.434 20.3705 16.4026L25.7945 21.8266C26.0802 22.112 26.3069 22.4509 26.4615 22.824C26.6162 23.197 26.6958 23.5969 26.6958 24.0008C26.6958 24.4046 26.6162 24.8045 26.4615 25.1776C26.3069 25.5506 26.0802 25.8896 25.7945 26.175Z" fill="white"/>
<path d="M17.9889 17.9853C16.5924 19.3826 14.8128 20.3343 12.8753 20.7201C10.9378 21.1059 8.92937 20.9084 7.1041 20.1526C5.27884 19.3968 3.71871 18.1167 2.62104 16.4742C1.52338 14.8316 0.9375 12.9005 0.9375 10.9249C0.9375 8.94938 1.52338 7.01821 2.62104 5.37567C3.71871 3.73314 5.27884 2.45303 7.1041 1.69726C8.92937 0.941484 10.9378 0.744002 12.8753 1.12979C14.8128 1.51558 16.5924 2.4673 17.9889 3.86459C18.9176 4.79091 19.6545 5.89135 20.1572 7.10289C20.6599 8.31442 20.9187 9.61323 20.9187 10.9249C20.9187 12.2366 20.6599 13.5354 20.1572 14.747C19.6545 15.9585 18.9176 17.0589 17.9889 17.9853ZM6.03476 6.03109C5.06908 6.99861 4.41185 8.23065 4.14612 9.57155C3.88039 10.9124 4.01809 12.302 4.5418 13.5647C5.06552 14.8274 5.95176 15.9065 7.08854 16.6656C8.22532 17.4248 9.56162 17.83 10.9286 17.83C12.2956 17.83 13.6319 17.4248 14.7686 16.6656C15.9054 15.9065 16.7917 14.8274 17.3154 13.5647C17.8391 12.302 17.9768 10.9124 17.7111 9.57155C17.4453 8.23065 16.7881 6.99861 15.8224 6.03109C14.5214 4.73905 12.7622 4.01395 10.9286 4.01395C9.095 4.01395 7.3358 4.73905 6.03476 6.03109Z" fill="white"/>
<path d="M10.9363 14.0057C12.6335 14.0057 14.0093 12.6298 14.0093 10.9326C14.0093 9.23541 12.6335 7.85956 10.9363 7.85956C9.23907 7.85956 7.86322 9.23541 7.86322 10.9326C7.86322 12.6298 9.23907 14.0057 10.9363 14.0057Z" fill="white"/>
</svg>
