<svg width="24" height="24" viewBox="0 0 24 24" fill="none" xmlns="http://www.w3.org/2000/svg">
<path d="M6.6 5.54617V5.54644V11.5703C6.6 14.1409 8.69111 16.232 11.2617 16.232H11.7773C14.3479 16.232 16.4391 14.1409 16.4391 11.5703V5.55469C16.4391 2.96171 14.3493 0.85 11.7773 0.85H11.2617C8.69262 0.85 6.60461 2.95713 6.6 5.54617ZM11.2617 2.43906H11.7773C13.3449 2.43906 14.6654 3.63632 14.85 5.17682V11.9479C14.6633 13.4632 13.3448 14.643 11.7773 14.643H11.2617C9.69434 14.643 8.37577 13.4632 8.18906 11.9479V5.17682C8.3737 3.63632 9.6942 2.43906 11.2617 2.43906ZM19.1891 11.3125C19.1891 10.8737 18.8333 10.518 18.3945 10.518C17.9557 10.518 17.6 10.8737 17.6 11.3125C17.6 14.6651 14.8722 17.393 11.5195 17.393C8.16689 17.393 5.43906 14.6651 5.43906 11.3125C5.43906 10.8737 5.08333 10.518 4.64453 10.518C4.20574 10.518 3.85 10.8737 3.85 11.3125C3.85 15.2734 6.86788 18.5417 10.725 18.9406V21.5609H7.39453C6.95574 21.5609 6.6 21.9167 6.6 22.3555C6.6 22.7943 6.95574 23.15 7.39453 23.15H15.6445C16.0833 23.15 16.4391 22.7943 16.4391 22.3555C16.4391 21.9167 16.0833 21.5609 15.6445 21.5609H12.3141V18.9406C16.1712 18.5417 19.1891 15.2734 19.1891 11.3125Z" fill="#828796" stroke="#828796" stroke-width="0.3"/>
</svg>
