<svg width="22" height="22" viewBox="0 0 22 22" fill="none" xmlns="http://www.w3.org/2000/svg">
<path d="M11 22C4.91489 22 0 17.0851 0 11C0 4.91489 4.91489 0 11 0C17.0851 0 22 4.91489 22 11C22 17.0851 17.0851 22 11 22ZM11 1.82553C5.94468 1.82553 1.82553 5.94468 1.82553 11C1.82553 16.0553 5.94468 20.1745 11 20.1745C16.0553 20.1745 20.1745 16.0553 20.1745 11C20.1745 5.94468 16.0553 1.82553 11 1.82553Z" fill="white"/>
<path d="M14.3505 6.27154C14.7217 5.90036 15.3132 5.91105 15.6717 6.29542C16.0301 6.67979 16.0198 7.29228 15.6486 7.66346L7.58338 15.7285C7.21219 16.0996 6.62069 16.089 6.26223 15.7046C5.90377 15.3202 5.9141 14.7077 6.28529 14.3365L14.3505 6.27154Z" fill="white"/>
<path d="M7.64946 6.27154C7.27826 5.90036 6.68677 5.91105 6.32831 6.29542C5.96985 6.67979 5.98018 7.29228 6.35137 7.66346L14.4166 15.7285C14.7878 16.0996 15.3793 16.089 15.7378 15.7046C16.0962 15.3202 16.0859 14.7077 15.7147 14.3365L7.64946 6.27154Z" fill="white"/>
</svg>
