<svg width="19" height="20" viewBox="0 0 19 20" fill="none" xmlns="http://www.w3.org/2000/svg">
<path d="M9.50002 0.374966C6.99748 0.374966 4.96877 2.33372 4.96877 4.74997C4.96877 7.16621 6.99748 9.12497 9.50002 9.12497C12.0026 9.12497 14.0313 7.16621 14.0313 4.74997C14.0313 2.33372 12.0026 0.374966 9.50002 0.374966Z" fill="white"/>
<path d="M4.66669 11.4583C2.16415 11.4583 0.135437 13.4171 0.135437 15.8333V17.2196C0.135437 18.0984 0.795046 18.8477 1.69331 18.9893C6.86356 19.8043 12.1365 19.8043 17.3067 18.9893C18.205 18.8477 18.8646 18.0984 18.8646 17.2196V15.8333C18.8646 13.4171 16.8359 11.4583 14.3334 11.4583H13.9215C13.6985 11.4583 13.477 11.4923 13.2651 11.5591L12.2193 11.8889C10.4523 12.4459 8.5477 12.4459 6.78077 11.8889L5.73494 11.5591C5.52302 11.4923 5.3015 11.4583 5.07857 11.4583H4.66669Z" fill="white"/>
</svg>
