<svg width="21" height="21" viewBox="0 0 21 21" fill="none" xmlns="http://www.w3.org/2000/svg">
<path d="M19.1319 16.5712L17.8967 17.2059V18.175L19.124 18.8098C19.1699 18.8341 19.2212 18.8463 19.2731 18.8452C19.325 18.844 19.3758 18.8295 19.4205 18.803C19.4652 18.7766 19.5023 18.7391 19.5283 18.6941C19.5544 18.6492 19.5684 18.5983 19.5691 18.5464V16.8398C19.5686 16.7885 19.5551 16.7382 19.5299 16.6935C19.5046 16.6489 19.4685 16.6114 19.4248 16.5846C19.3811 16.5577 19.3313 16.5424 19.2801 16.5401C19.2289 16.5377 19.1779 16.5484 19.1319 16.5712Z" fill="#343A3D"/>
<path d="M17.528 15.3412H13.7092C13.5942 15.3419 13.484 15.3879 13.4027 15.4693C13.3214 15.5506 13.2753 15.6608 13.2747 15.7758V19.5946C13.2774 19.708 13.3244 19.8158 13.4056 19.8951C13.4868 19.9743 13.5958 20.0186 13.7092 20.0186H17.528C17.6423 20.0179 17.7518 19.9722 17.8326 19.8913C17.9135 19.8105 17.9592 19.701 17.9599 19.5867V15.7758C17.9592 15.6612 17.9136 15.5515 17.8328 15.4702C17.752 15.3889 17.6426 15.3426 17.528 15.3412ZM15.6186 18.8308C15.392 18.8308 15.1705 18.7636 14.9821 18.6378C14.7937 18.5119 14.6469 18.3329 14.5602 18.1236C14.4735 17.9143 14.4508 17.6839 14.495 17.4617C14.5392 17.2395 14.6483 17.0353 14.8085 16.8751C14.9687 16.7149 15.1729 16.6058 15.3951 16.5616C15.6173 16.5174 15.8477 16.5401 16.057 16.6268C16.2664 16.7135 16.4453 16.8603 16.5712 17.0487C16.697 17.2371 16.7642 17.4586 16.7642 17.6852C16.7642 17.989 16.6435 18.2804 16.4287 18.4953C16.2138 18.7101 15.9224 18.8308 15.6186 18.8308Z" fill="#343A3D"/>
<path d="M10.1458 12.876C9.58032 12.876 9.02755 12.7084 8.55732 12.3943C8.08709 12.0803 7.72049 11.6339 7.50386 11.1116C7.28723 10.5893 7.23029 10.0145 7.34022 9.45979C7.45015 8.90512 7.72203 8.39549 8.1215 7.99528C8.52097 7.59507 9.03011 7.32226 9.58457 7.2113C10.139 7.10035 10.714 7.15624 11.2367 7.37191C11.7594 7.58758 12.2064 7.95335 12.5213 8.423C12.8363 8.89266 13.0049 9.44512 13.0059 10.0106C13.0063 10.3865 12.9326 10.7589 12.789 11.1063C12.6455 11.4538 12.4349 11.7696 12.1693 12.0356C11.9037 12.3017 11.5883 12.5129 11.2411 12.6571C10.8939 12.8012 10.5217 12.8756 10.1458 12.876ZM10.1458 8.43829C9.83325 8.43829 9.52774 8.53096 9.26788 8.7046C9.00802 8.87823 8.80548 9.12502 8.68588 9.41376C8.56628 9.7025 8.53498 10.0202 8.59596 10.3268C8.65693 10.6333 8.80743 10.9148 9.02842 11.1358C9.24941 11.3568 9.53098 11.5073 9.8375 11.5683C10.144 11.6293 10.4618 11.598 10.7505 11.4784C11.0392 11.3588 11.286 11.1562 11.4597 10.8964C11.6333 10.6365 11.726 10.331 11.726 10.0185C11.727 9.8103 11.6869 9.60397 11.608 9.41134C11.529 9.21871 11.4128 9.04357 11.2659 8.896C11.1191 8.74843 10.9446 8.63133 10.7523 8.55142C10.5601 8.47152 10.354 8.43038 10.1458 8.43039V8.43829Z" fill="#343A3D"/>
<path d="M11.9527 1.20107C11.9176 1.20354 11.8824 1.20354 11.8473 1.20107C11.5525 1.13716 11.2544 1.08881 10.9545 1.05622C10.8853 1.04913 10.8182 1.02848 10.757 0.995463C10.6959 0.962442 10.6418 0.917691 10.5979 0.863766C10.554 0.809842 10.5211 0.747799 10.5012 0.68118C10.4813 0.614561 10.4747 0.54467 10.4818 0.475499C10.4889 0.406328 10.5095 0.339231 10.5425 0.278039C10.5755 0.216846 10.6203 0.162757 10.6742 0.118859C10.7281 0.0749608 10.7902 0.042114 10.8568 0.0221937C10.9234 0.00227339 10.9933 -0.00433026 11.0625 0.00275978C11.3967 0.0365242 11.729 0.0875091 12.058 0.155511C12.1977 0.169481 12.3261 0.238373 12.415 0.347032C12.5039 0.455691 12.546 0.595216 12.5321 0.734914C12.5181 0.874611 12.4492 1.00304 12.3405 1.09194C12.2319 1.18084 12.0924 1.22294 11.9527 1.20897V1.20107Z" fill="#343A3D"/>
<path d="M10.0115 20.0185C8.37077 20.0293 6.75301 19.6323 5.30361 18.8633C3.8542 18.0942 2.61855 16.9771 1.70765 15.6124C0.740995 14.1727 0.162987 12.5075 0.0297392 10.7786C-0.103508 9.04959 0.212532 7.31553 0.94718 5.74473C1.68183 4.17393 2.81012 2.81975 4.22254 1.81367C5.63495 0.807578 7.28349 0.183756 9.00812 0.00276143C9.14782 -0.0115575 9.28748 0.0302045 9.39639 0.11886C9.50529 0.207516 9.57452 0.335804 9.58884 0.475501C9.60316 0.615198 9.5614 0.754862 9.47274 0.863768C9.38409 0.972674 9.2558 1.0419 9.1161 1.05622C7.57449 1.21932 6.10113 1.77776 4.83872 2.67747C3.57631 3.57718 2.56764 4.78766 1.91042 6.19165C1.25319 7.59565 0.969674 9.14558 1.08734 10.6913C1.205 12.2371 1.71985 13.7262 2.58202 15.0145C3.39553 16.2376 4.50055 17.2391 5.79752 17.9287C7.09449 18.6184 8.54265 18.9745 10.0115 18.965H10.0352C10.1749 18.965 10.3089 19.0205 10.4077 19.1193C10.5065 19.2181 10.562 19.352 10.562 19.4917C10.562 19.6314 10.5065 19.7654 10.4077 19.8642C10.3089 19.963 10.1749 20.0185 10.0352 20.0185H10.0115Z" fill="#343A3D"/>
<path d="M19.5006 11.496H19.448C19.3789 11.4891 19.3119 11.4686 19.2507 11.4357C19.1896 11.4028 19.1356 11.3581 19.0918 11.3043C19.048 11.2504 19.0152 11.1885 18.9955 11.1219C18.9757 11.0554 18.9693 10.9856 18.9765 10.9166C19.0083 10.6112 19.0241 10.3044 19.0239 9.99743C19.0239 9.85774 19.0794 9.72376 19.1782 9.62498C19.277 9.5262 19.411 9.4707 19.5507 9.4707C19.6904 9.4707 19.8244 9.5262 19.9231 9.62498C20.0219 9.72376 20.0774 9.85774 20.0774 9.99743C20.0771 10.3405 20.0596 10.6833 20.0247 11.0246C20.0111 11.154 19.9499 11.2738 19.8532 11.3609C19.7564 11.4479 19.6308 11.496 19.5006 11.496Z" fill="#343A3D"/>
<path d="M19.3558 8.60428C19.2325 8.60677 19.1123 8.56596 19.0161 8.48897C18.9199 8.41197 18.8537 8.30366 18.829 8.1829C18.769 7.89224 18.6943 7.6048 18.6052 7.32169C18.564 7.18828 18.5775 7.044 18.6427 6.92054C18.7079 6.79708 18.8194 6.70455 18.9528 6.66328C19.0862 6.62214 19.2305 6.63565 19.354 6.70083C19.4774 6.76602 19.57 6.87755 19.6112 7.01092C19.711 7.32666 19.7937 7.64755 19.8588 7.97221C19.8877 8.10506 19.864 8.24394 19.7929 8.35978C19.7217 8.47562 19.6085 8.55946 19.4769 8.59375C19.4371 8.60217 19.3964 8.60571 19.3558 8.60428Z" fill="#343A3D"/>
<path d="M18.4022 5.98644C18.3085 5.98775 18.2162 5.96403 18.1347 5.91773C18.0532 5.87144 17.9856 5.80424 17.9387 5.72308C17.8018 5.45971 17.649 5.22005 17.4884 4.98039C17.4484 4.92257 17.4205 4.85735 17.4061 4.78855C17.3918 4.71976 17.3913 4.6488 17.4048 4.57983C17.4183 4.51087 17.4455 4.44531 17.4847 4.387C17.5239 4.32869 17.5744 4.27883 17.6332 4.24033C17.6904 4.20139 17.7548 4.1741 17.8226 4.16003C17.8903 4.14597 17.9602 4.1454 18.0282 4.15837C18.0962 4.17133 18.161 4.19757 18.2189 4.23559C18.2767 4.2736 18.3265 4.32265 18.3654 4.37992C18.5445 4.64328 18.713 4.92508 18.8684 5.20952C18.9013 5.27039 18.9218 5.33713 18.9289 5.40594C18.9359 5.47475 18.9294 5.54428 18.9096 5.61056C18.8897 5.67683 18.8571 5.73856 18.8134 5.79221C18.7698 5.84585 18.7159 5.89038 18.6551 5.92323C18.5774 5.96515 18.4905 5.98688 18.4022 5.98644Z" fill="#343A3D"/>
<path d="M16.7641 3.7952C16.6946 3.79526 16.6257 3.78156 16.5616 3.75489C16.4974 3.72822 16.4391 3.68911 16.3901 3.63982C16.1873 3.43703 15.974 3.24214 15.7528 3.06042C15.6455 2.97149 15.5779 2.84371 15.5646 2.70504C15.5514 2.56637 15.5936 2.4281 15.6821 2.32049C15.7705 2.21288 15.898 2.14469 16.0366 2.13084C16.1753 2.117 16.3137 2.15863 16.4217 2.24662C16.6693 2.45204 16.9089 2.668 17.1354 2.8945C17.2095 2.96801 17.2601 3.0619 17.2808 3.16423C17.3015 3.26656 17.2913 3.37273 17.2515 3.46924C17.2117 3.56576 17.1441 3.64827 17.0573 3.70631C16.9705 3.76435 16.8685 3.79529 16.7641 3.7952Z" fill="#343A3D"/>
<path d="M14.5703 2.15442C14.4828 2.15535 14.3966 2.13357 14.3201 2.09122C14.0567 1.95427 13.7934 1.82785 13.53 1.71197C13.4015 1.65679 13.3001 1.55282 13.2483 1.42292C13.1964 1.29302 13.1983 1.14784 13.2535 1.01932C13.3087 0.8908 13.4126 0.789463 13.5425 0.737603C13.6724 0.685743 13.8176 0.687608 13.9461 0.742789C14.2437 0.869204 14.5387 1.00615 14.8258 1.16681C14.9286 1.22367 15.0095 1.31329 15.0555 1.42141C15.1015 1.52953 15.1101 1.64994 15.0798 1.76348C15.0495 1.87703 14.9822 1.97718 14.8884 2.04802C14.7946 2.11886 14.6799 2.15632 14.5624 2.15442H14.5703Z" fill="#343A3D"/>
</svg>
