<svg width="22" height="22" viewBox="0 0 22 22" fill="none" xmlns="http://www.w3.org/2000/svg">
<path d="M21.4888 8.12509L13.5283 0.164654C13.4504 0.0861423 13.3508 0.0326064 13.2424 0.010866C13.1339 -0.0108744 13.0214 0.000164759 12.9192 0.0425773C12.8171 0.0849899 12.7298 0.156856 12.6686 0.249022C12.6074 0.341188 12.5751 0.449481 12.5756 0.560108V4.26813C9.84224 4.2663 7.19692 5.23478 5.11085 7.00108C3.02478 8.76737 1.63339 11.2168 1.18452 13.9131L0.0109936 20.89C-0.0161033 21.0366 0.00723423 21.1881 0.0772049 21.3197C0.147176 21.4514 0.259657 21.5554 0.396327 21.615C0.532998 21.6745 0.685806 21.6861 0.829861 21.6477C0.973917 21.6093 1.10073 21.5233 1.18965 21.4036L3.15665 18.7998C4.25782 17.3398 5.67889 16.1515 7.31077 15.3263C8.94265 14.501 10.7419 14.0606 12.5705 14.0389V18.0294C12.5699 18.14 12.6023 18.2483 12.6635 18.3405C12.7247 18.4327 12.8119 18.5045 12.9141 18.5469C13.0163 18.5894 13.1288 18.6004 13.2372 18.5787C13.3457 18.5569 13.4453 18.5034 13.5232 18.4249L21.4836 10.4644C21.6382 10.3115 21.7611 10.1296 21.8451 9.92902C21.9291 9.72846 21.9725 9.51327 21.973 9.29583C21.9735 9.07839 21.931 8.86301 21.8478 8.66208C21.7647 8.46116 21.6427 8.27866 21.4888 8.12509Z" fill="#343A3D"/>
</svg>
