<svg width="21" height="21" viewBox="0 0 21 21" fill="none" xmlns="http://www.w3.org/2000/svg">
<path d="M18.4882 20.7136H2.22543C1.63542 20.7129 1.06978 20.4782 0.652584 20.061C0.235385 19.6438 0.000696997 19.0782 0 18.4882L0 2.22543C0.000696997 1.63542 0.235385 1.06978 0.652584 0.652584C1.06978 0.235385 1.63542 0.000696997 2.22543 0L18.4882 0C19.0782 0.000696997 19.6438 0.235385 20.061 0.652584C20.4782 1.06978 20.7129 1.63542 20.7136 2.22543V18.4882C20.7129 19.0782 20.4782 19.6438 20.061 20.061C19.6438 20.4782 19.0782 20.7129 18.4882 20.7136ZM2.22543 1.05346C1.9146 1.05346 1.61651 1.17693 1.39672 1.39672C1.17693 1.61651 1.05346 1.9146 1.05346 2.22543V18.4882C1.05346 18.6421 1.08377 18.7945 1.14267 18.9367C1.20157 19.0789 1.28789 19.2081 1.39672 19.3169C1.50555 19.4257 1.63475 19.5121 1.77694 19.571C1.91913 19.6299 2.07153 19.6602 2.22543 19.6602H18.4882C18.7988 19.6595 19.0965 19.5358 19.3161 19.3161C19.5358 19.0965 19.6595 18.7988 19.6602 18.4882V2.22543C19.6602 2.07153 19.6299 1.91913 19.571 1.77694C19.5121 1.63475 19.4257 1.50555 19.3169 1.39672C19.2081 1.28789 19.0789 1.20157 18.9367 1.14267C18.7945 1.08377 18.6421 1.05346 18.4882 1.05346H2.22543Z" fill="#343A3D"/>
<path d="M7.07922 20.7136C6.93952 20.7136 6.80555 20.6581 6.70677 20.5594C6.60798 20.4606 6.55249 20.3266 6.55249 20.1869V0.526729C6.55249 0.387032 6.60798 0.253056 6.70677 0.154275C6.80555 0.0554945 6.93952 0 7.07922 0C7.21892 0 7.35289 0.0554945 7.45167 0.154275C7.55045 0.253056 7.60595 0.387032 7.60595 0.526729V20.1869C7.60595 20.3266 7.55045 20.4606 7.45167 20.5594C7.35289 20.6581 7.21892 20.7136 7.07922 20.7136Z" fill="#343A3D"/>
<path d="M13.6344 20.7136C13.4947 20.7136 13.3607 20.6581 13.2619 20.5594C13.1632 20.4606 13.1077 20.3266 13.1077 20.1869V0.526729C13.1077 0.387032 13.1632 0.253056 13.2619 0.154275C13.3607 0.0554945 13.4947 0 13.6344 0C13.7741 0 13.9081 0.0554945 14.0068 0.154275C14.1056 0.253056 14.1611 0.387032 14.1611 0.526729V20.1869C14.1611 20.3266 14.1056 20.4606 14.0068 20.5594C13.9081 20.6581 13.7741 20.7136 13.6344 20.7136Z" fill="#343A3D"/>
<path d="M20.1869 14.1611H0.526729C0.387032 14.1611 0.253056 14.1056 0.154275 14.0068C0.0554945 13.9081 0 13.7741 0 13.6344C0 13.4947 0.0554945 13.3607 0.154275 13.2619C0.253056 13.1632 0.387032 13.1077 0.526729 13.1077H20.1869C20.3266 13.1077 20.4606 13.1632 20.5594 13.2619C20.6581 13.3607 20.7136 13.4947 20.7136 13.6344C20.7136 13.7741 20.6581 13.9081 20.5594 14.0068C20.4606 14.1056 20.3266 14.1611 20.1869 14.1611Z" fill="#343A3D"/>
<path d="M20.1869 7.60595H0.526729C0.387032 7.60595 0.253056 7.55045 0.154275 7.45167C0.0554945 7.35289 0 7.21892 0 7.07922C0 6.93952 0.0554945 6.80555 0.154275 6.70677C0.253056 6.60798 0.387032 6.55249 0.526729 6.55249H20.1869C20.3266 6.55249 20.4606 6.60798 20.5594 6.70677C20.6581 6.80555 20.7136 6.93952 20.7136 7.07922C20.7136 7.21892 20.6581 7.35289 20.5594 7.45167C20.4606 7.55045 20.3266 7.60595 20.1869 7.60595Z" fill="#343A3D"/>
</svg>
