<svg width="26" height="26" viewBox="0 0 26 26" fill="none" xmlns="http://www.w3.org/2000/svg">
<g filter="url(#filter0_d_414_1787)">
<path fill-rule="evenodd" clip-rule="evenodd" d="M13 1C19.6274 1 25 6.37258 25 13C25 19.6274 19.6274 25 13 25C6.37258 25 1 19.6274 1 13C1 6.37258 6.37258 1 13 1ZM13 2.26316C7.07021 2.26316 2.26316 7.07021 2.26316 13C2.26316 18.9298 7.07021 23.7368 13 23.7368C18.9298 23.7368 23.7368 18.9298 23.7368 13C23.7368 7.07021 18.9298 2.26316 13 2.26316ZM13.4478 3.68331L13.3425 3.67763C13.0287 3.68037 12.7385 3.85853 12.5961 4.14477L8.54088 12.2996L8.50223 12.39C8.3593 12.7867 8.53325 13.2362 8.91994 13.4285L12.5604 15.0671L11.8221 21.3898L11.8164 21.488C11.8161 21.9096 12.1319 22.2738 12.5609 22.3239C12.9137 22.3651 13.2544 22.1805 13.4126 21.8624L17.4678 13.7086L17.5064 13.6182C17.6494 13.2215 17.4754 12.772 17.0888 12.5796L13.448 10.9408L14.1866 4.61739L14.1923 4.51919C14.1926 4.09756 13.8768 3.73339 13.4478 3.68331Z" fill="white"/>
</g>
<defs>
<filter id="filter0_d_414_1787" x="0" y="0" width="26" height="26" filterUnits="userSpaceOnUse" color-interpolation-filters="sRGB">
<feFlood flood-opacity="0" result="BackgroundImageFix"/>
<feColorMatrix in="SourceAlpha" type="matrix" values="0 0 0 0 0 0 0 0 0 0 0 0 0 0 0 0 0 0 127 0" result="hardAlpha"/>
<feOffset/>
<feGaussianBlur stdDeviation="0.5"/>
<feColorMatrix type="matrix" values="0 0 0 0 0.14902 0 0 0 0 0.14902 0 0 0 0 0.14902 0 0 0 0.4 0"/>
<feBlend mode="normal" in2="BackgroundImageFix" result="effect1_dropShadow_414_1787"/>
<feBlend mode="normal" in="SourceGraphic" in2="effect1_dropShadow_414_1787" result="shape"/>
</filter>
</defs>
</svg>
