<svg width="24" height="24" viewBox="0 0 24 24" fill="none" xmlns="http://www.w3.org/2000/svg">
<path d="M12.002 23.0004C18.0674 23.0004 23.002 18.0657 23.002 12.0001C23.002 5.93473 18.0674 1 12.002 1C5.93659 1 1.00195 5.93473 1.00195 12.0001C1.00195 18.0657 5.93659 23.0004 12.002 23.0004ZM12.002 2.50584C17.2371 2.50584 21.4961 6.76495 21.4962 12.0001C21.4962 17.2353 17.2372 21.4945 12.002 21.4946C6.76691 21.4945 2.50789 17.2353 2.50789 12C2.50789 6.76505 6.76691 2.50584 12.002 2.50584Z" fill="white"/>
<path d="M10.5248 16.7116C10.8188 17.0056 11.2956 17.0055 11.5895 16.7116C11.8836 16.4175 11.8836 15.9408 11.5894 15.6467L8.69619 12.7536L17.0744 12.7528C17.4902 12.7527 17.8272 12.4157 17.8272 11.9996C17.8271 11.5838 17.4901 11.2469 17.0743 11.2469L8.69578 11.2477L11.5897 8.35401C11.8837 8.05997 11.8837 7.58312 11.5897 7.28918C11.4426 7.14221 11.25 7.06863 11.0572 7.06863C10.8646 7.06863 10.6719 7.14221 10.5249 7.28908L6.34577 11.4681C6.20452 11.6092 6.12522 11.8007 6.12522 12.0005C6.12532 12.2002 6.20463 12.3916 6.34587 12.533L10.5248 16.7116Z" fill="white"/>
</svg>
