<svg width="24" height="24" viewBox="0 0 24 24" fill="none" xmlns="http://www.w3.org/2000/svg">
<mask id="path-1-outside-1_764_1234" maskUnits="userSpaceOnUse" x="0" y="0.000976562" width="24" height="24" fill="black">
<rect fill="white" y="0.000976562" width="24" height="24"/>
<path d="M21.874 9.6916L20.3299 9.42964C20.169 8.91031 19.9622 8.40937 19.7094 7.93141L20.6194 6.65838C21.0054 6.11608 20.9457 5.37616 20.4723 4.90739L19.1028 3.53785C18.8454 3.28048 18.5053 3.13801 18.1423 3.13801C17.8573 3.13801 17.5862 3.22533 17.3564 3.39078L16.0788 4.30075C15.5824 4.03879 15.0631 3.82279 14.5254 3.66193L14.268 2.13613C14.1577 1.47894 13.5924 1.00098 12.9261 1.00098H10.9912C10.3248 1.00098 9.75956 1.47894 9.64926 2.13613L9.3827 3.6987C8.86798 3.85955 8.36704 4.07096 7.88907 4.32832L6.62524 3.41836C6.39545 3.25291 6.1197 3.16559 5.83476 3.16559C5.47169 3.16559 5.12701 3.30806 4.87424 3.56542L3.5001 4.93496C3.03134 5.40373 2.96699 6.14365 3.35304 6.68596L4.2722 7.97737C4.01943 8.45993 3.81721 8.96087 3.66096 9.48019L2.13516 9.73755C1.47796 9.84785 1 10.4131 1 11.0795V13.0143C1 13.6807 1.47796 14.246 2.13516 14.3563L3.69772 14.6229C3.85858 15.1376 4.06998 15.6385 4.32735 16.1165L3.42198 17.3757C3.03593 17.918 3.09568 18.658 3.56904 19.1267L4.93858 20.4963C5.19595 20.7536 5.53604 20.8961 5.8991 20.8961C6.18404 20.8961 6.45519 20.8088 6.68498 20.6433L7.97639 19.7242C8.44057 19.9678 8.92772 20.1654 9.42866 20.3216L9.68602 21.8658C9.79632 22.523 10.3616 23.001 11.028 23.001H12.9674C13.6338 23.001 14.1991 22.523 14.3094 21.8658L14.5713 20.3216C15.0907 20.1608 15.5916 19.954 16.0696 19.7012L17.3426 20.6112C17.5724 20.7766 17.8481 20.8639 18.1331 20.8639C18.4961 20.8639 18.8362 20.7215 19.0936 20.4641L20.4631 19.0946C20.9319 18.6258 20.9962 17.8859 20.6102 17.3436L19.7002 16.0659C19.953 15.5834 20.1644 15.0824 20.3207 14.5677L21.8648 14.3104C22.522 14.2001 23 13.6348 23 12.9684V11.0336C23.0092 10.3672 22.5312 9.8019 21.874 9.6916ZM21.7683 12.9684C21.7683 13.0281 21.727 13.0787 21.6672 13.0879L19.737 13.4096C19.4934 13.4509 19.3004 13.6302 19.2407 13.8646C19.066 14.5401 18.7995 15.1882 18.441 15.7902C18.3169 16.0016 18.3261 16.2636 18.4686 16.4658L19.6037 18.0651C19.6359 18.1111 19.6313 18.18 19.5899 18.2214L18.2204 19.5909C18.1882 19.6231 18.156 19.6277 18.1331 19.6277C18.1055 19.6277 18.0825 19.6185 18.0641 19.6047L16.4694 18.4695C16.2718 18.3271 16.0052 18.3179 15.7938 18.442C15.1918 18.8004 14.5438 19.067 13.8682 19.2416C13.6292 19.3014 13.45 19.499 13.4132 19.738L13.0869 21.6682C13.0777 21.7279 13.0272 21.7693 12.9674 21.7693H11.0326C10.9728 21.7693 10.9223 21.7279 10.9131 21.6682L10.5914 19.738C10.55 19.4944 10.3708 19.3014 10.1364 19.2416C9.47921 19.0716 8.845 18.8096 8.25214 18.4695C8.15563 18.4144 8.04533 18.3868 7.93963 18.3868C7.81554 18.3868 7.68686 18.4236 7.58116 18.5017L5.97263 19.6461C5.94966 19.6598 5.92668 19.669 5.9037 19.669C5.88531 19.669 5.84855 19.6644 5.81638 19.6323L4.44684 18.2627C4.40547 18.2214 4.40088 18.157 4.43305 18.1065L5.56361 16.5209C5.70608 16.3187 5.71527 16.0522 5.59118 15.8408C5.23271 15.2433 4.95697 14.5953 4.78233 13.9197C4.71799 13.6853 4.52496 13.5061 4.28598 13.4647L2.34197 13.1338C2.28222 13.1246 2.24086 13.0741 2.24086 13.0143V11.0795C2.24086 11.0198 2.28222 10.9692 2.34197 10.96L4.25841 10.6383C4.50198 10.597 4.6996 10.4177 4.75935 10.1788C4.92939 9.50317 5.19135 8.85057 5.54523 8.24852C5.66931 8.03712 5.65553 7.77516 5.51306 7.57754L4.36871 5.96902C4.33654 5.92306 4.34113 5.85412 4.38249 5.81276L5.75204 4.44322C5.78421 4.41105 5.81638 4.40645 5.83936 4.40645C5.86693 4.40645 5.88991 4.41564 5.90829 4.42943L7.49384 5.55999C7.69605 5.70246 7.96261 5.71165 8.17401 5.58757C8.77146 5.22909 9.41947 4.95335 10.095 4.77871C10.3294 4.71437 10.5087 4.52134 10.55 4.28236L10.8809 2.33835C10.8901 2.2786 10.9407 2.23724 11.0004 2.23724H12.9352C12.995 2.23724 13.0455 2.2786 13.0547 2.33835L13.3764 4.25479C13.4178 4.49837 13.597 4.69598 13.836 4.75573C14.53 4.93037 15.1918 5.20152 15.8076 5.56459C16.019 5.68867 16.281 5.67948 16.4832 5.53701L18.0687 4.39726C18.0917 4.38347 18.1147 4.37428 18.1377 4.37428C18.156 4.37428 18.1928 4.37888 18.225 4.41105L19.5945 5.78059C19.6359 5.82195 19.6405 5.88629 19.6083 5.93684L18.4732 7.53158C18.3307 7.7292 18.3215 7.99575 18.4456 8.20716C18.8041 8.80921 19.0706 9.45721 19.2452 10.1328C19.305 10.3718 19.5026 10.551 19.7416 10.5878L21.6718 10.9141C21.7316 10.9233 21.7729 10.9738 21.7729 11.0336V12.9684H21.7683Z"/>
<path d="M12.0023 7.25124C9.3827 7.25124 7.25486 9.37908 7.25486 11.9987C7.25486 14.6183 9.3827 16.7461 12.0023 16.7461C14.6219 16.7461 16.7497 14.6183 16.7497 11.9987C16.7497 9.37908 14.6219 7.25124 12.0023 7.25124ZM12.0023 15.5053C10.0675 15.5053 8.49572 13.9335 8.49572 11.9987C8.49572 10.0639 10.0675 8.4921 12.0023 8.4921C13.9371 8.4921 15.5089 10.0639 15.5089 11.9987C15.5089 13.9335 13.9371 15.5053 12.0023 15.5053Z"/>
</mask>
<path d="M21.874 9.6916L20.3299 9.42964C20.169 8.91031 19.9622 8.40937 19.7094 7.93141L20.6194 6.65838C21.0054 6.11608 20.9457 5.37616 20.4723 4.90739L19.1028 3.53785C18.8454 3.28048 18.5053 3.13801 18.1423 3.13801C17.8573 3.13801 17.5862 3.22533 17.3564 3.39078L16.0788 4.30075C15.5824 4.03879 15.0631 3.82279 14.5254 3.66193L14.268 2.13613C14.1577 1.47894 13.5924 1.00098 12.9261 1.00098H10.9912C10.3248 1.00098 9.75956 1.47894 9.64926 2.13613L9.3827 3.6987C8.86798 3.85955 8.36704 4.07096 7.88907 4.32832L6.62524 3.41836C6.39545 3.25291 6.1197 3.16559 5.83476 3.16559C5.47169 3.16559 5.12701 3.30806 4.87424 3.56542L3.5001 4.93496C3.03134 5.40373 2.96699 6.14365 3.35304 6.68596L4.2722 7.97737C4.01943 8.45993 3.81721 8.96087 3.66096 9.48019L2.13516 9.73755C1.47796 9.84785 1 10.4131 1 11.0795V13.0143C1 13.6807 1.47796 14.246 2.13516 14.3563L3.69772 14.6229C3.85858 15.1376 4.06998 15.6385 4.32735 16.1165L3.42198 17.3757C3.03593 17.918 3.09568 18.658 3.56904 19.1267L4.93858 20.4963C5.19595 20.7536 5.53604 20.8961 5.8991 20.8961C6.18404 20.8961 6.45519 20.8088 6.68498 20.6433L7.97639 19.7242C8.44057 19.9678 8.92772 20.1654 9.42866 20.3216L9.68602 21.8658C9.79632 22.523 10.3616 23.001 11.028 23.001H12.9674C13.6338 23.001 14.1991 22.523 14.3094 21.8658L14.5713 20.3216C15.0907 20.1608 15.5916 19.954 16.0696 19.7012L17.3426 20.6112C17.5724 20.7766 17.8481 20.8639 18.1331 20.8639C18.4961 20.8639 18.8362 20.7215 19.0936 20.4641L20.4631 19.0946C20.9319 18.6258 20.9962 17.8859 20.6102 17.3436L19.7002 16.0659C19.953 15.5834 20.1644 15.0824 20.3207 14.5677L21.8648 14.3104C22.522 14.2001 23 13.6348 23 12.9684V11.0336C23.0092 10.3672 22.5312 9.8019 21.874 9.6916ZM21.7683 12.9684C21.7683 13.0281 21.727 13.0787 21.6672 13.0879L19.737 13.4096C19.4934 13.4509 19.3004 13.6302 19.2407 13.8646C19.066 14.5401 18.7995 15.1882 18.441 15.7902C18.3169 16.0016 18.3261 16.2636 18.4686 16.4658L19.6037 18.0651C19.6359 18.1111 19.6313 18.18 19.5899 18.2214L18.2204 19.5909C18.1882 19.6231 18.156 19.6277 18.1331 19.6277C18.1055 19.6277 18.0825 19.6185 18.0641 19.6047L16.4694 18.4695C16.2718 18.3271 16.0052 18.3179 15.7938 18.442C15.1918 18.8004 14.5438 19.067 13.8682 19.2416C13.6292 19.3014 13.45 19.499 13.4132 19.738L13.0869 21.6682C13.0777 21.7279 13.0272 21.7693 12.9674 21.7693H11.0326C10.9728 21.7693 10.9223 21.7279 10.9131 21.6682L10.5914 19.738C10.55 19.4944 10.3708 19.3014 10.1364 19.2416C9.47921 19.0716 8.845 18.8096 8.25214 18.4695C8.15563 18.4144 8.04533 18.3868 7.93963 18.3868C7.81554 18.3868 7.68686 18.4236 7.58116 18.5017L5.97263 19.6461C5.94966 19.6598 5.92668 19.669 5.9037 19.669C5.88531 19.669 5.84855 19.6644 5.81638 19.6323L4.44684 18.2627C4.40547 18.2214 4.40088 18.157 4.43305 18.1065L5.56361 16.5209C5.70608 16.3187 5.71527 16.0522 5.59118 15.8408C5.23271 15.2433 4.95697 14.5953 4.78233 13.9197C4.71799 13.6853 4.52496 13.5061 4.28598 13.4647L2.34197 13.1338C2.28222 13.1246 2.24086 13.0741 2.24086 13.0143V11.0795C2.24086 11.0198 2.28222 10.9692 2.34197 10.96L4.25841 10.6383C4.50198 10.597 4.6996 10.4177 4.75935 10.1788C4.92939 9.50317 5.19135 8.85057 5.54523 8.24852C5.66931 8.03712 5.65553 7.77516 5.51306 7.57754L4.36871 5.96902C4.33654 5.92306 4.34113 5.85412 4.38249 5.81276L5.75204 4.44322C5.78421 4.41105 5.81638 4.40645 5.83936 4.40645C5.86693 4.40645 5.88991 4.41564 5.90829 4.42943L7.49384 5.55999C7.69605 5.70246 7.96261 5.71165 8.17401 5.58757C8.77146 5.22909 9.41947 4.95335 10.095 4.77871C10.3294 4.71437 10.5087 4.52134 10.55 4.28236L10.8809 2.33835C10.8901 2.2786 10.9407 2.23724 11.0004 2.23724H12.9352C12.995 2.23724 13.0455 2.2786 13.0547 2.33835L13.3764 4.25479C13.4178 4.49837 13.597 4.69598 13.836 4.75573C14.53 4.93037 15.1918 5.20152 15.8076 5.56459C16.019 5.68867 16.281 5.67948 16.4832 5.53701L18.0687 4.39726C18.0917 4.38347 18.1147 4.37428 18.1377 4.37428C18.156 4.37428 18.1928 4.37888 18.225 4.41105L19.5945 5.78059C19.6359 5.82195 19.6405 5.88629 19.6083 5.93684L18.4732 7.53158C18.3307 7.7292 18.3215 7.99575 18.4456 8.20716C18.8041 8.80921 19.0706 9.45721 19.2452 10.1328C19.305 10.3718 19.5026 10.551 19.7416 10.5878L21.6718 10.9141C21.7316 10.9233 21.7729 10.9738 21.7729 11.0336V12.9684H21.7683Z" fill="#1F2128"/>
<path d="M12.0023 7.25124C9.3827 7.25124 7.25486 9.37908 7.25486 11.9987C7.25486 14.6183 9.3827 16.7461 12.0023 16.7461C14.6219 16.7461 16.7497 14.6183 16.7497 11.9987C16.7497 9.37908 14.6219 7.25124 12.0023 7.25124ZM12.0023 15.5053C10.0675 15.5053 8.49572 13.9335 8.49572 11.9987C8.49572 10.0639 10.0675 8.4921 12.0023 8.4921C13.9371 8.4921 15.5089 10.0639 15.5089 11.9987C15.5089 13.9335 13.9371 15.5053 12.0023 15.5053Z" fill="#1F2128"/>
<path d="M21.874 9.6916L20.3299 9.42964C20.169 8.91031 19.9622 8.40937 19.7094 7.93141L20.6194 6.65838C21.0054 6.11608 20.9457 5.37616 20.4723 4.90739L19.1028 3.53785C18.8454 3.28048 18.5053 3.13801 18.1423 3.13801C17.8573 3.13801 17.5862 3.22533 17.3564 3.39078L16.0788 4.30075C15.5824 4.03879 15.0631 3.82279 14.5254 3.66193L14.268 2.13613C14.1577 1.47894 13.5924 1.00098 12.9261 1.00098H10.9912C10.3248 1.00098 9.75956 1.47894 9.64926 2.13613L9.3827 3.6987C8.86798 3.85955 8.36704 4.07096 7.88907 4.32832L6.62524 3.41836C6.39545 3.25291 6.1197 3.16559 5.83476 3.16559C5.47169 3.16559 5.12701 3.30806 4.87424 3.56542L3.5001 4.93496C3.03134 5.40373 2.96699 6.14365 3.35304 6.68596L4.2722 7.97737C4.01943 8.45993 3.81721 8.96087 3.66096 9.48019L2.13516 9.73755C1.47796 9.84785 1 10.4131 1 11.0795V13.0143C1 13.6807 1.47796 14.246 2.13516 14.3563L3.69772 14.6229C3.85858 15.1376 4.06998 15.6385 4.32735 16.1165L3.42198 17.3757C3.03593 17.918 3.09568 18.658 3.56904 19.1267L4.93858 20.4963C5.19595 20.7536 5.53604 20.8961 5.8991 20.8961C6.18404 20.8961 6.45519 20.8088 6.68498 20.6433L7.97639 19.7242C8.44057 19.9678 8.92772 20.1654 9.42866 20.3216L9.68602 21.8658C9.79632 22.523 10.3616 23.001 11.028 23.001H12.9674C13.6338 23.001 14.1991 22.523 14.3094 21.8658L14.5713 20.3216C15.0907 20.1608 15.5916 19.954 16.0696 19.7012L17.3426 20.6112C17.5724 20.7766 17.8481 20.8639 18.1331 20.8639C18.4961 20.8639 18.8362 20.7215 19.0936 20.4641L20.4631 19.0946C20.9319 18.6258 20.9962 17.8859 20.6102 17.3436L19.7002 16.0659C19.953 15.5834 20.1644 15.0824 20.3207 14.5677L21.8648 14.3104C22.522 14.2001 23 13.6348 23 12.9684V11.0336C23.0092 10.3672 22.5312 9.8019 21.874 9.6916ZM21.7683 12.9684C21.7683 13.0281 21.727 13.0787 21.6672 13.0879L19.737 13.4096C19.4934 13.4509 19.3004 13.6302 19.2407 13.8646C19.066 14.5401 18.7995 15.1882 18.441 15.7902C18.3169 16.0016 18.3261 16.2636 18.4686 16.4658L19.6037 18.0651C19.6359 18.1111 19.6313 18.18 19.5899 18.2214L18.2204 19.5909C18.1882 19.6231 18.156 19.6277 18.1331 19.6277C18.1055 19.6277 18.0825 19.6185 18.0641 19.6047L16.4694 18.4695C16.2718 18.3271 16.0052 18.3179 15.7938 18.442C15.1918 18.8004 14.5438 19.067 13.8682 19.2416C13.6292 19.3014 13.45 19.499 13.4132 19.738L13.0869 21.6682C13.0777 21.7279 13.0272 21.7693 12.9674 21.7693H11.0326C10.9728 21.7693 10.9223 21.7279 10.9131 21.6682L10.5914 19.738C10.55 19.4944 10.3708 19.3014 10.1364 19.2416C9.47921 19.0716 8.845 18.8096 8.25214 18.4695C8.15563 18.4144 8.04533 18.3868 7.93963 18.3868C7.81554 18.3868 7.68686 18.4236 7.58116 18.5017L5.97263 19.6461C5.94966 19.6598 5.92668 19.669 5.9037 19.669C5.88531 19.669 5.84855 19.6644 5.81638 19.6323L4.44684 18.2627C4.40547 18.2214 4.40088 18.157 4.43305 18.1065L5.56361 16.5209C5.70608 16.3187 5.71527 16.0522 5.59118 15.8408C5.23271 15.2433 4.95697 14.5953 4.78233 13.9197C4.71799 13.6853 4.52496 13.5061 4.28598 13.4647L2.34197 13.1338C2.28222 13.1246 2.24086 13.0741 2.24086 13.0143V11.0795C2.24086 11.0198 2.28222 10.9692 2.34197 10.96L4.25841 10.6383C4.50198 10.597 4.6996 10.4177 4.75935 10.1788C4.92939 9.50317 5.19135 8.85057 5.54523 8.24852C5.66931 8.03712 5.65553 7.77516 5.51306 7.57754L4.36871 5.96902C4.33654 5.92306 4.34113 5.85412 4.38249 5.81276L5.75204 4.44322C5.78421 4.41105 5.81638 4.40645 5.83936 4.40645C5.86693 4.40645 5.88991 4.41564 5.90829 4.42943L7.49384 5.55999C7.69605 5.70246 7.96261 5.71165 8.17401 5.58757C8.77146 5.22909 9.41947 4.95335 10.095 4.77871C10.3294 4.71437 10.5087 4.52134 10.55 4.28236L10.8809 2.33835C10.8901 2.2786 10.9407 2.23724 11.0004 2.23724H12.9352C12.995 2.23724 13.0455 2.2786 13.0547 2.33835L13.3764 4.25479C13.4178 4.49837 13.597 4.69598 13.836 4.75573C14.53 4.93037 15.1918 5.20152 15.8076 5.56459C16.019 5.68867 16.281 5.67948 16.4832 5.53701L18.0687 4.39726C18.0917 4.38347 18.1147 4.37428 18.1377 4.37428C18.156 4.37428 18.1928 4.37888 18.225 4.41105L19.5945 5.78059C19.6359 5.82195 19.6405 5.88629 19.6083 5.93684L18.4732 7.53158C18.3307 7.7292 18.3215 7.99575 18.4456 8.20716C18.8041 8.80921 19.0706 9.45721 19.2452 10.1328C19.305 10.3718 19.5026 10.551 19.7416 10.5878L21.6718 10.9141C21.7316 10.9233 21.7729 10.9738 21.7729 11.0336V12.9684H21.7683Z" stroke="#1F2128" stroke-width="0.4" mask="url(#path-1-outside-1_764_1234)"/>
<path d="M12.0023 7.25124C9.3827 7.25124 7.25486 9.37908 7.25486 11.9987C7.25486 14.6183 9.3827 16.7461 12.0023 16.7461C14.6219 16.7461 16.7497 14.6183 16.7497 11.9987C16.7497 9.37908 14.6219 7.25124 12.0023 7.25124ZM12.0023 15.5053C10.0675 15.5053 8.49572 13.9335 8.49572 11.9987C8.49572 10.0639 10.0675 8.4921 12.0023 8.4921C13.9371 8.4921 15.5089 10.0639 15.5089 11.9987C15.5089 13.9335 13.9371 15.5053 12.0023 15.5053Z" stroke="#1F2128" stroke-width="0.4" mask="url(#path-1-outside-1_764_1234)"/>
</svg>
