<svg width="24" height="24" viewBox="0 0 24 24" fill="none" xmlns="http://www.w3.org/2000/svg">
<path d="M20.6972 17.3574C20.3164 17.0741 19.7781 17.1532 19.4948 17.534C19.339 17.7434 19.1722 17.9488 18.9992 18.1446C18.6849 18.5001 18.7183 19.0432 19.0738 19.3576C19.2374 19.5022 19.4404 19.5731 19.6427 19.5731C19.8804 19.5731 20.1171 19.475 20.2869 19.2829C20.4918 19.0512 20.6893 18.8079 20.8738 18.5598C21.1571 18.1791 21.078 17.6407 20.6972 17.3574Z" fill="#2E313C"/>
<path d="M22.1347 13.3272C21.6712 13.2262 21.2131 13.5203 21.1122 13.9841C21.0566 14.2392 20.9895 14.4947 20.9126 14.7438C20.7724 15.1973 21.0265 15.6784 21.4799 15.8186C21.5644 15.8446 21.6499 15.8571 21.7339 15.8571C22.1009 15.8571 22.4407 15.6201 22.5547 15.2511C22.646 14.9556 22.7257 14.6523 22.7916 14.3496C22.8926 13.8859 22.5984 13.4281 22.1347 13.3272Z" fill="#2E313C"/>
<path d="M16.5605 20.1097C16.3324 20.237 16.0961 20.356 15.8584 20.4634C15.4259 20.6588 15.2336 21.1678 15.4289 21.6003C15.5724 21.9181 15.8852 22.1062 16.2126 22.1062C16.3309 22.1062 16.4511 22.0817 16.5658 22.0298C16.8478 21.9025 17.1279 21.7613 17.3984 21.6103C17.8129 21.379 17.9612 20.8554 17.7298 20.441C17.4985 20.0267 16.975 19.8783 16.5605 20.1097Z" fill="#2E313C"/>
<path d="M11.1408 5.125V11.644L7.98948 14.7953C7.6539 15.1309 7.6539 15.675 7.98948 16.0106C8.15732 16.1785 8.37719 16.2623 8.59719 16.2623C8.8171 16.2623 9.03706 16.1784 9.2049 16.0106L12.6079 12.6077C12.769 12.4465 12.8595 12.2279 12.8595 12V5.125C12.8595 4.65037 12.4748 4.26562 12.0001 4.26562C11.5255 4.26562 11.1408 4.65037 11.1408 5.125Z" fill="#2E313C"/>
<path d="M22.1406 2.84766C21.666 2.84766 21.2812 3.2324 21.2812 3.70703V6.09334C19.281 2.95628 15.7877 1 12 1C9.0618 1 6.29947 2.14421 4.2218 4.2218C2.14421 6.29947 1 9.0618 1 12C1 14.9382 2.14421 17.7005 4.2218 19.7782C6.29947 21.8558 9.0618 23 12 23C12.0073 23 12.0143 22.9991 12.0215 22.9989C12.0287 22.9991 12.0357 23 12.043 23C12.3527 23 12.6655 22.9869 12.9727 22.9612C13.4456 22.9216 13.797 22.5061 13.7574 22.0332C13.7177 21.5602 13.3028 21.2087 12.8293 21.2485C12.5696 21.2702 12.305 21.2812 12.043 21.2812C12.0357 21.2812 12.0287 21.2822 12.0215 21.2823C12.0143 21.2822 12.0073 21.2812 12 21.2812C6.88229 21.2812 2.71875 17.1177 2.71875 12C2.71875 6.88229 6.88229 2.71875 12 2.71875C15.2982 2.71875 18.3317 4.47673 19.9894 7.27344H17.6265C17.1518 7.27344 16.7671 7.65818 16.7671 8.13281C16.7671 8.60745 17.1518 8.99219 17.6265 8.99219H20.25C20.7734 8.99219 21.263 8.84511 21.6799 8.5903C21.7067 8.575 21.7325 8.55855 21.757 8.5408C22.505 8.04877 23 7.20241 23 6.24219V3.70703C23 3.2324 22.6153 2.84766 22.1406 2.84766Z" fill="#2E313C"/>
</svg>
