<svg width="24" height="24" viewBox="0 0 24 24" fill="none" xmlns="http://www.w3.org/2000/svg">
<path d="M3.51499 23.2081C3.67118 23.2946 3.84768 23.3377 4.02617 23.333C4.20466 23.3282 4.37862 23.2758 4.52998 23.1811L11.9999 18.5121L19.4698 23.1811C19.6212 23.2757 19.7951 23.328 19.9736 23.3327C20.152 23.3374 20.3284 23.2942 20.4846 23.2077C20.6407 23.1212 20.7708 22.9944 20.8614 22.8406C20.952 22.6868 20.9998 22.5116 20.9998 22.3331V4.33328C20.9998 3.53764 20.6837 2.77458 20.1211 2.21198C19.5585 1.64938 18.7955 1.33331 17.9998 1.33331H5.99996C5.20432 1.33331 4.44127 1.64938 3.87867 2.21198C3.31607 2.77458 3 3.53764 3 4.33328V22.3331C2.99991 22.5116 3.04763 22.6869 3.13819 22.8408C3.22875 22.9946 3.35886 23.1215 3.51499 23.2081ZM4.99998 4.33328C4.99998 4.06806 5.10533 3.81371 5.29287 3.62618C5.4804 3.43865 5.73475 3.33329 5.99996 3.33329H17.9998C18.265 3.33329 18.5194 3.43865 18.7069 3.62618C18.8945 3.81371 18.9998 4.06806 18.9998 4.33328V20.5331L12.5299 16.4891C12.371 16.3898 12.1873 16.3371 11.9999 16.3371C11.8125 16.3371 11.6288 16.3898 11.4699 16.4891L4.99998 20.5331V4.33328Z" fill="#2E313C"/>
</svg>
