<svg width="24" height="24" viewBox="0 0 24 24" fill="none" xmlns="http://www.w3.org/2000/svg">
<path d="M12 23C5.91489 23 1 18.0851 1 12C1 5.91489 5.91489 1 12 1C18.0851 1 23 5.91489 23 12C23 18.0851 18.0851 23 12 23ZM12 2.82553C6.94468 2.82553 2.82553 6.94468 2.82553 12C2.82553 17.0553 6.94468 21.1745 12 21.1745C17.0553 21.1745 21.1745 17.0553 21.1745 12C21.1745 6.94468 17.0553 2.82553 12 2.82553Z" fill="white"/>
<path d="M11.0833 7.41667C11.0833 6.91041 11.4937 6.5 12 6.5C12.5063 6.5 12.9167 6.91041 12.9167 7.41667V16.5833C12.9167 17.0896 12.5063 17.5 12 17.5C11.4937 17.5 11.0833 17.0896 11.0833 16.5833V7.41667Z" fill="white"/>
<path d="M7.41667 12.9167C6.91041 12.9167 6.5 12.5063 6.5 12C6.5 11.4937 6.91041 11.0833 7.41667 11.0833L16.5833 11.0833C17.0896 11.0833 17.5 11.4937 17.5 12C17.5 12.5063 17.0896 12.9167 16.5833 12.9167L7.41667 12.9167Z" fill="white"/>
</svg>
