<svg width="23" height="22" viewBox="0 0 23 22" fill="none" xmlns="http://www.w3.org/2000/svg">
<path d="M18.417 19.9891C18.8957 20.529 19.5537 20.8803 20.2712 20.9789C20.9888 21.0776 21.7181 20.9171 22.3265 20.5266C21.8538 20.2595 21.4472 19.8909 21.1364 19.4477C20.8256 19.0045 20.6185 18.4979 20.5301 17.965C21.3073 16.8406 21.7247 15.5094 21.7277 14.1456C21.7276 12.6269 21.2202 11.1512 20.2849 9.94961C19.3496 8.74807 18.0394 7.88863 16.5594 7.50595C15.0795 7.12327 13.5136 7.239 12.107 7.83498C10.7004 8.43097 9.53265 9.47354 8.78676 10.7993C8.04087 12.1251 7.75897 13.6592 7.98524 15.1611C8.21151 16.6631 8.93316 18.048 10.0371 19.099C11.1411 20.1499 12.5649 20.8075 14.0856 20.9685C15.6062 21.1296 17.1377 20.7852 18.44 19.9891H18.417Z" stroke="black" stroke-linejoin="round"/>
<path d="M6.18193 13.3392C5.6145 13.1823 5.07188 12.9475 4.56978 12.6417C4.13106 13.1321 3.53055 13.4511 2.8762 13.5413C2.22185 13.6314 1.55658 13.4868 1 13.1334C1.4334 12.8896 1.80628 12.5525 2.09124 12.1468C2.37621 11.7411 2.56601 11.2772 2.6467 10.7891C2.13651 10.0325 1.79784 9.17485 1.6541 8.27552C1.51037 7.37618 1.56498 6.45658 1.81418 5.58026C2.06338 4.70394 2.50122 3.8918 3.09744 3.19998C3.69365 2.50816 4.43403 1.95315 5.26739 1.57332C6.10076 1.19348 7.00724 0.997874 7.92419 1.00002C8.84114 1.00216 9.74668 1.202 10.5782 1.58573C11.4098 1.96946 12.1475 2.52792 12.7405 3.22252C13.3334 3.91712 13.7674 4.7313 14.0124 5.60877" stroke="black" stroke-linejoin="round"/>
</svg>
