<svg width="25" height="24" viewBox="0 0 25 24" fill="none" xmlns="http://www.w3.org/2000/svg">
<path d="M10.5331 11.3667H10.5332C11.5683 11.3667 12.5801 11.0597 13.4407 10.4847C14.3013 9.90965 14.9721 9.09231 15.3682 8.13604C15.7643 7.17978 15.8679 6.12753 15.666 5.11236C15.4641 4.0972 14.9657 3.1647 14.2338 2.43281C13.5019 1.70092 12.5694 1.20249 11.5542 1.00056C10.539 0.79863 9.48679 0.902267 8.53053 1.29837C7.57426 1.69446 6.75692 2.36523 6.18188 3.22585C5.60683 4.08647 5.2999 5.09828 5.2999 6.13334L5.2999 6.13345C5.30149 7.5209 5.85335 8.85107 6.83443 9.83214C7.8155 10.8132 9.14567 11.3651 10.5331 11.3667ZM10.5333 2.56667C11.2387 2.56667 11.9282 2.77585 12.5148 3.16776C13.1013 3.55967 13.5585 4.11671 13.8284 4.76843C14.0984 5.42015 14.169 6.13729 14.0314 6.82916C13.8937 7.52102 13.5541 8.15654 13.0553 8.65535C12.5564 9.15416 11.9209 9.49385 11.2291 9.63147C10.5372 9.76909 9.82006 9.69846 9.16833 9.4285C8.51661 9.15855 7.95957 8.7014 7.56766 8.11487C7.17575 7.52833 6.96657 6.83875 6.96657 6.13334H6.86657L6.96657 6.13345C6.9677 5.18783 7.34385 4.28126 8.01251 3.61261C8.68114 2.94397 9.58767 2.56783 10.5333 2.56667Z" fill="#2E313C" stroke="#2E313C" stroke-width="0.2"/>
<path d="M10.5334 12.6333L10.5332 12.6333C7.97923 12.6363 5.53069 13.6521 3.72475 15.4581C1.91881 17.264 0.902942 19.7126 0.9 22.2666V22.2667C0.9 22.4877 0.987797 22.6996 1.14408 22.8559C1.30036 23.0122 1.51232 23.1 1.73333 23.1H19.3333C19.5543 23.1 19.7663 23.0122 19.9226 22.8559C20.0789 22.6996 20.1667 22.4877 20.1667 22.2667V22.2666C20.1637 19.7126 19.1479 17.264 17.3419 15.4581C15.536 13.6521 13.0874 12.6363 10.5334 12.6333ZM18.4568 21.4333H2.60991C2.81269 19.4947 3.7195 17.6962 5.16059 16.38C6.62865 15.0391 8.54506 14.2956 10.5333 14.2956C12.5216 14.2956 14.438 15.0391 15.9061 16.38C17.3472 17.6962 18.254 19.4947 18.4568 21.4333Z" fill="#2E313C" stroke="#2E313C" stroke-width="0.2"/>
<path d="M23.6453 6.58691L22.4207 5.3623C22.034 4.97559 21.4861 4.75 20.9705 4.75C20.4549 4.75 19.907 4.97559 19.5203 5.3623L8.14431 16.7383L7.75759 20.4121C7.69314 20.8633 8.04763 21.25 8.4988 21.25C8.53103 21.25 8.56325 21.25 8.59548 21.25L12.2693 20.8633L23.6453 9.4873C24.451 8.68164 24.451 7.39258 23.6453 6.58691ZM11.5603 19.3809L9.40115 19.6064L9.62673 17.4473L17.0711 9.9707L18.0701 8.97168L20.0359 10.9375L19.0369 11.9365L11.5603 19.3809ZM22.5496 8.3916L21.1316 9.8418L19.1658 7.87598L20.616 6.45801C20.7449 6.3291 20.906 6.29688 20.9705 6.29688C21.0349 6.29688 21.1961 6.3291 21.325 6.45801L22.5496 7.68262C22.7429 7.87598 22.7429 8.19824 22.5496 8.3916Z" fill="#2E313B"/>
</svg>
