<svg width="15" height="18" viewBox="0 0 15 18" fill="none" xmlns="http://www.w3.org/2000/svg">
<path d="M10.352 14.2222V15.1667C10.352 15.6676 10.155 16.1481 9.80421 16.5023C9.45344 16.8565 8.97769 17.0556 8.48163 17.0556H2.87041C2.37434 17.0556 1.8986 16.8565 1.54783 16.5023C1.19706 16.1481 1 15.6676 1 15.1667V2.88889C1 2.38792 1.19706 1.90748 1.54783 1.55324C1.8986 1.19901 2.37434 1 2.87041 1H8.48163C8.97769 1 9.45344 1.19901 9.80421 1.55324C10.155 1.90748 10.352 2.38792 10.352 2.88889V5.72222" stroke="black" stroke-linejoin="round"/>
<path d="M5.6761 15.6389C5.93435 15.6389 6.1437 15.4275 6.1437 15.1667C6.1437 14.9059 5.93435 14.6945 5.6761 14.6945C5.41785 14.6945 5.2085 14.9059 5.2085 15.1667C5.2085 15.4275 5.41785 15.6389 5.6761 15.6389Z" stroke="black" stroke-linejoin="round"/>
<path d="M4.74072 2.41663H6.61113" stroke="black" stroke-linecap="round" stroke-linejoin="round"/>
<path d="M10.3519 5.72217C11.3059 6.82495 12.6265 7.53712 14.0647 7.72439C13.8449 10.4444 13.0921 13.2211 10.3519 14.2222C7.61177 13.2211 6.85893 10.4444 6.63916 7.72439C8.0773 7.53712 9.39789 6.82495 10.3519 5.72217V5.72217Z" stroke="black" stroke-linejoin="round"/>
</svg>
