<svg width="22" height="23" viewBox="0 0 22 23" fill="none" xmlns="http://www.w3.org/2000/svg">
<path d="M20.9322 21.2526C20.6919 21.4932 20.4064 21.6841 20.0923 21.8143C19.7781 21.9445 19.4414 22.0116 19.1013 22.0116C18.7612 22.0116 18.4245 21.9445 18.1103 21.8143C17.7962 21.6841 17.5107 21.4932 17.2704 21.2526L12.7029 16.6851C13.5713 16.4307 14.3619 15.9621 15.0018 15.3222C15.6417 14.6823 16.1103 13.8918 16.3647 13.0233L20.9322 17.5908C21.1728 17.8312 21.3637 18.1166 21.4939 18.4307C21.6241 18.7449 21.6912 19.0816 21.6912 19.4217C21.6912 19.7618 21.6241 20.0985 21.4939 20.4127C21.3637 20.7269 21.1728 21.0123 20.9322 21.2526Z" fill="#BDBDBD"/>
<path d="M14.3591 14.356C13.1831 15.5327 11.6845 16.3341 10.0529 16.659C8.42128 16.9839 6.72999 16.8176 5.19293 16.1811C3.65586 15.5447 2.34207 14.4667 1.41772 13.0835C0.493375 11.7003 0 10.0741 0 8.41047C0 6.74685 0.493375 5.1206 1.41772 3.73741C2.34207 2.35422 3.65586 1.27623 5.19293 0.639794C6.72999 0.00335456 8.42128 -0.162945 10.0529 0.161928C11.6845 0.486802 13.1831 1.28825 14.3591 2.46492C15.1412 3.24498 15.7617 4.17167 16.185 5.1919C16.6084 6.21214 16.8263 7.30588 16.8263 8.41047C16.8263 9.51506 16.6084 10.6088 16.185 11.629C15.7617 12.6493 15.1412 13.576 14.3591 14.356ZM4.29243 4.28934C3.47922 5.10409 2.92577 6.1416 2.702 7.27078C2.47823 8.39995 2.59418 9.57012 3.0352 10.6334C3.47623 11.6967 4.22254 12.6054 5.17982 13.2448C6.13711 13.8841 7.26242 14.2253 8.41355 14.2253C9.56469 14.2253 10.69 13.8841 11.6473 13.2448C12.6046 12.6054 13.3509 11.6967 13.7919 10.6334C14.2329 9.57012 14.3489 8.39995 14.1251 7.27078C13.9013 6.1416 13.3479 5.10409 12.5347 4.28934C11.4391 3.20131 9.95763 2.59069 8.41355 2.59069C6.86947 2.59069 5.38804 3.20131 4.29243 4.28934Z" fill="#BDBDBD"/>
<path d="M8.42005 11.0048C9.84927 11.0048 11.0079 9.84616 11.0079 8.41694C11.0079 6.98771 9.84927 5.8291 8.42005 5.8291C6.99083 5.8291 5.83221 6.98771 5.83221 8.41694C5.83221 9.84616 6.99083 11.0048 8.42005 11.0048Z" fill="#BDBDBD"/>
</svg>
