<svg width="22" height="22" viewBox="0 0 22 22" fill="none" xmlns="http://www.w3.org/2000/svg">
<path d="M4.94824 18.645C5.12667 17.6157 5.55187 16.645 6.18743 15.816C6.823 14.987 7.65 14.3244 8.59762 13.8849" stroke="black" stroke-miterlimit="10"/>
<path d="M14.0273 13.8849C14.7174 14.2061 15.3459 14.6457 15.8844 15.1836C16.815 16.1255 17.431 17.3327 17.6473 18.6391" stroke="black" stroke-miterlimit="10"/>
<path d="M11.3125 20.9367C16.83 20.9367 21.3028 16.4639 21.3028 10.9464C21.3028 5.42897 16.83 0.956177 11.3125 0.956177C5.79506 0.956177 1.32227 5.42897 1.32227 10.9464C1.32227 16.4639 5.79506 20.9367 11.3125 20.9367Z" stroke="black" stroke-miterlimit="10"/>
<path d="M11.3124 15.0601C13.5843 15.0601 15.426 12.9552 15.426 10.3588C15.426 7.76231 13.5843 5.65747 11.3124 5.65747C9.04047 5.65747 7.19873 7.76231 7.19873 10.3588C7.19873 12.9552 9.04047 15.0601 11.3124 15.0601Z" stroke="black" stroke-miterlimit="10"/>
</svg>
