<svg width="20" height="20" viewBox="0 0 20 20" fill="none" xmlns="http://www.w3.org/2000/svg">
<path d="M19.1263 18.3143L17.9861 15.4049C17.8978 15.1843 17.8578 14.9472 17.8688 14.7098C17.8799 14.4723 17.9418 14.24 18.0503 14.0285C18.8056 12.5996 19.1839 11.0017 19.1494 9.3858C19.1123 7.51652 18.5288 5.69899 17.4709 4.15743C16.413 2.61587 14.927 1.41773 13.1961 0.710829C11.4653 0.00392783 9.56533 -0.180808 7.73072 0.179414C5.8961 0.539635 4.20707 1.42905 2.87201 2.73794C1.53695 4.04682 0.61426 5.71791 0.217784 7.54503C-0.178692 9.37216 -0.0316117 11.2754 0.64088 13.0199C1.31337 14.7644 2.48185 16.2739 4.00216 17.3621C5.52247 18.4503 7.3281 19.0697 9.19628 19.1438C10.7779 19.2081 12.3507 18.8772 13.7722 18.1808C14.1709 17.9821 14.631 17.9453 15.0562 18.0781L18.3534 19.1361C18.4658 19.1724 18.5863 19.1761 18.7007 19.1467C18.8152 19.1173 18.919 19.056 19 18.9699C19.0809 18.8838 19.1358 18.7765 19.1582 18.6604C19.1805 18.5444 19.1695 18.4243 19.1263 18.3143Z" fill="#343A3D"/>
</svg>
